<svg xmlns="http://www.w3.org/2000/svg" width="75.184" height="100" viewBox="0 0 75.184 100">
  <path id="certified" d="M37.581,0a7.536,7.536,0,0,1,4.565,1.432c1.8,1.139,3.792,3.377,6.274,4.793,3.483,1.994,9.945-.757,13.257,4.159a12.889,12.889,0,0,1,2.165,7.324,12.858,12.858,0,0,0,3.027,7.837c4.069,5.371,4.883,8.952,2.808,12.671-1.424,2.531-4.427,3.947-5.119,5.55-1.481,3.418.155,6-1.872,9.985a10.62,10.62,0,0,1-6.454,5.518c-2.441.814-4.883-.35-6.828.472-3.426,1.449-5.957,4.793-8.716,5.64a10.58,10.58,0,0,1-6.291,0c-2.726-.814-5.249-4.191-8.675-5.632-1.953-.814-4.395.317-6.828-.472a10.58,10.58,0,0,1-6.462-5.518c-2.026-3.988-.391-6.567-1.872-9.985-.692-1.628-3.695-3.019-5.119-5.55-2.059-3.727-1.213-7.3,2.848-12.671a12.956,12.956,0,0,0,3.027-7.837,12.731,12.731,0,0,1,2.165-7.324c3.3-4.883,9.766-2.165,13.257-4.159,2.441-1.416,4.484-3.654,6.266-4.785A7.56,7.56,0,0,1,37.581,0ZM72.429,92.017,63,90.333l-4.663,8.342c-3.385,4.191-5.534-2.694-6.51-5.094L42.782,76.5c2.091-.724,4.614-2.824,7.2-5.168,5.168.106,9.985-.814,13.526-5.3L73.942,86.174l.928,1.9C75.578,90.585,75.2,92.245,72.429,92.017Zm-69.638,0,9.416-1.685,4.663,8.342c3.377,4.191,5.526-2.694,6.51-5.094L32.373,76.5c-2.091-.724-4.606-2.824-7.2-5.168-5.168.106-9.985-.814-13.526-5.3L1.22,86.142.309,88.07C-.4,90.585-.025,92.245,2.75,92.017Zm29.4-62.5,3.841,3.621,7.723-7.845c.757-.773,1.237-1.392,2.181-.423L49,27.995c1,.993.952,1.579,0,2.507l-11.255,11c-1.994,1.961-1.628,2.083-3.67.073L27.01,34.546a.887.887,0,0,1,.081-1.375l3.548-3.678c.537-.553.968-.521,1.522,0Zm5.322-15.739a19.673,19.673,0,1,1-.033,0Z" transform="translate(0.002 0.002)" fill="#fff" fill-rule="evenodd"/>
</svg>
