<svg xmlns="http://www.w3.org/2000/svg" width="100" height="98" viewBox="0 0 100 98">
  <path id="deal" d="M71,40.633,85.853,14.9,59.591,0,33.708,44.83a21.276,21.276,0,0,1,5.818-1.459L58.484,10.535a4.56,4.56,0,0,0,6.4-1.5L75.222,15a4.451,4.451,0,0,0,1.713,6.014L66.841,38.5A27.728,27.728,0,0,1,71,40.633ZM12.841,74.426a2.162,2.162,0,1,1-2.162,2.162A2.163,2.163,0,0,1,12.841,74.426Zm62.93-18.865a8.224,8.224,0,0,1,.074-1.166l-4.252-2.84c-.611-.408-1.281-.877-1.953-1.348-2.418-1.693-4.908-3.438-7.592-4.143a20.912,20.912,0,0,0-4.834-.668,16.722,16.722,0,0,0-4.447.482,11.374,11.374,0,0,0-2.447.934,8.667,8.667,0,0,0-1.881,1.328l-2.855,3.4a1.231,1.231,0,0,1-.357.424l-7.873,9.369a3.408,3.408,0,0,0,.676,1.5,3.346,3.346,0,0,0,1.451,1.025,4.769,4.769,0,0,0,2.057.256,6.762,6.762,0,0,0,3.6-1.488l2.188-1.809c.553-.457,1.014-.877,1.471-1.3a20.233,20.233,0,0,1,3.078-2.475c2.453-1.465,4.895-1.512,7.311,2.539L71.558,81.913h4.209l0-26.352Zm1-3.574a4.56,4.56,0,0,1,.656-.73,6.682,6.682,0,0,1,4.611-1.449V49.8l10.762,0a8.629,8.629,0,0,1,5.352,1.379c1.412,1.086,2.074,2.742,1.791,5.115L97.561,80.885a8.675,8.675,0,0,1-1.787,5.106,5.49,5.49,0,0,1-4.637,1.8l-9.678,0a4.937,4.937,0,0,1-3.465-1.066A6.493,6.493,0,0,1,76.24,84.44H72.892a5.738,5.738,0,0,1,.068,3.68,6.02,6.02,0,0,1-2.012,2.846A6.911,6.911,0,0,1,67.8,92.358a6.206,6.206,0,0,1-3.389-.371,8.825,8.825,0,0,1-4,2.549,6.987,6.987,0,0,1-4.254-.2,8.547,8.547,0,0,1-4.525,2.816,8.321,8.321,0,0,1-5.389-.783,8.015,8.015,0,0,1-1.861,1.1A6.949,6.949,0,0,1,41.49,98a7.858,7.858,0,0,1-5.33-1.941,15.962,15.962,0,0,1-3-4.147l-5.334-9.3H23.691a7.225,7.225,0,0,1-1.227,2.951l-.059.082a5.486,5.486,0,0,1-4.744,2.033l-9.025,0a4.605,4.605,0,0,1-4.522-1.539c-1.063-1.232-1.789-3.225-2.1-6.158L2,79.868.138,56.764C-.231,54.27.177,52.506,1.179,51.3A5.8,5.8,0,0,1,5.593,49.45l.156-.01H17.175v.006A8.114,8.114,0,0,1,21.7,50.481v0a4.626,4.626,0,0,1,1.977,2.65h7.775a22.178,22.178,0,0,1,5.807-2.984,15.561,15.561,0,0,1,6.662-.531l2.66-3.166.1-.105a11.028,11.028,0,0,1,2.465-1.756,13.823,13.823,0,0,1,2.988-1.139,19.149,19.149,0,0,1,5.115-.563,23.378,23.378,0,0,1,5.43.746l0,0c3.1.813,5.785,2.691,8.389,4.516.621.436,1.24.869,1.912,1.316l3.779,2.516ZM21.419,54.749a1.261,1.261,0,0,1-.047-.455,2.38,2.38,0,0,0-1.021-1.7,5.869,5.869,0,0,0-3.162-.639h-.014v.006l-11.475,0a3.48,3.48,0,0,0-2.594.949c-.545.652-.74,1.779-.475,3.525l.012.115L4.511,79.712c.254,2.395.77,3.934,1.5,4.781a2.3,2.3,0,0,0,2.314.688,1.288,1.288,0,0,1,.227-.021l9.037,0,.135.008a3.119,3.119,0,0,0,2.7-1.068l.045-.055a6.727,6.727,0,0,0,.959-3.752l0-25.539Zm2.518,25.34h4.617a1.26,1.26,0,0,1,1.121.684l5.67,9.889a14.283,14.283,0,0,0,2.486,3.527,5.492,5.492,0,0,0,3.729,1.3,4.5,4.5,0,0,0,1.867-.338,5.232,5.232,0,0,0,1.07-.607L40.8,87.632a1.253,1.253,0,0,1,2.211-1.18l4.016,7.514A6.087,6.087,0,0,0,51.1,94.7a6.094,6.094,0,0,0,3.152-1.99l-5.787-9.082a1.253,1.253,0,1,1,2.113-1.346l6.1,9.572a4.718,4.718,0,0,0,3.074.266,6.355,6.355,0,0,0,2.8-1.824l-5.525-10.4a1.257,1.257,0,1,1,2.221-1.18l5.715,10.76a3.646,3.646,0,0,0,2.432.406A4.36,4.36,0,0,0,69.386,89a3.528,3.528,0,0,0,1.186-1.648,3.416,3.416,0,0,0-.189-2.449,1.231,1.231,0,0,1-.1-.58,1.254,1.254,0,0,1-.715-.83L57.023,60.866c-1.395-2.332-2.652-2.393-3.867-1.67a18.44,18.44,0,0,0-2.676,2.172c-.549.5-1.1,1.008-1.559,1.385l-2.227,1.834a9.265,9.265,0,0,1-4.953,2.033,7.258,7.258,0,0,1-3.137-.412,5.857,5.857,0,0,1-2.531-1.8,6.042,6.042,0,0,1-1.293-3.346,1.26,1.26,0,0,1,.365-.994L41.925,52a12.382,12.382,0,0,0-3.914.551,20.488,20.488,0,0,0-5.395,2.832,1.26,1.26,0,0,1-.779.27h-7.9V80.089Zm62.887-5.662a2.162,2.162,0,1,1-2.164,2.162A2.163,2.163,0,0,1,86.824,74.426ZM58.337,25.735a6.883,6.883,0,0,0-5.578,11.258,28.506,28.506,0,0,1,10.3.357,6.881,6.881,0,0,0-4.723-11.615ZM28.507,46.911,51.326,7.389,47.613,5.283,24.673,45.016a11.577,11.577,0,0,1,2.4,1.895Z" transform="translate(-0.004)" fill="#fff" fill-rule="evenodd"/>
</svg>
