<svg xmlns="http://www.w3.org/2000/svg" width="40" height="40" viewBox="0 0 40 40">
  <g id="Group_916" data-name="Group 916" transform="translate(-1837 -8325)">
    <circle id="Ellipse_64" data-name="Ellipse 64" cx="20" cy="20" r="20" transform="translate(1837 8325)" fill="#fff"/>
    <path id="instagram-brands_1_" data-name="instagram-brands (1)" d="M12.645,38.02a6.519,6.519,0,1,0,6.519,6.519A6.509,6.509,0,0,0,12.645,38.02Zm0,10.758a4.238,4.238,0,1,1,4.238-4.238,4.246,4.246,0,0,1-4.238,4.238Zm8.307-11.025a1.521,1.521,0,1,1-1.521-1.521A1.517,1.517,0,0,1,20.951,37.753ZM25.269,39.3a7.525,7.525,0,0,0-2.054-5.328,7.575,7.575,0,0,0-5.328-2.054c-2.1-.119-8.392-.119-10.491,0a7.564,7.564,0,0,0-5.328,2.048A7.55,7.55,0,0,0,.014,39.291c-.119,2.1-.119,8.392,0,10.491A7.525,7.525,0,0,0,2.068,55.11,7.584,7.584,0,0,0,7.4,57.164c2.1.119,8.392.119,10.491,0a7.525,7.525,0,0,0,5.328-2.054,7.575,7.575,0,0,0,2.054-5.328C25.388,47.682,25.388,41.4,25.269,39.3ZM22.557,52.034a4.291,4.291,0,0,1-2.417,2.417c-1.674.664-5.646.511-7.5.511s-5.827.148-7.5-.511a4.291,4.291,0,0,1-2.417-2.417c-.664-1.674-.511-5.646-.511-7.5s-.148-5.827.511-7.5a4.291,4.291,0,0,1,2.417-2.417c1.674-.664,5.646-.511,7.5-.511s5.827-.148,7.5.511a4.291,4.291,0,0,1,2.417,2.417c.664,1.674.511,5.646.511,7.5S23.221,50.366,22.557,52.034Z" transform="translate(1844.358 8300.461)" fill="#aa0f76"/>
  </g>
</svg>
