<svg xmlns="http://www.w3.org/2000/svg" width="40" height="40" viewBox="0 0 40 40">
  <g id="Group_914" data-name="Group 914" transform="translate(-1727 -8325)">
    <circle id="Ellipse_65" data-name="Ellipse 65" cx="20" cy="20" r="20" transform="translate(1727 8325)" fill="#fff"/>
    <path id="linkedin-in-brands" d="M5.66,25.3H.418V8.414H5.66ZM3.036,6.111A3.051,3.051,0,1,1,6.072,3.046,3.062,3.062,0,0,1,3.036,6.111ZM25.281,25.3H20.05V17.078c0-1.959-.04-4.47-2.726-4.47-2.726,0-3.143,2.128-3.143,4.329V25.3H8.944V8.414h5.028v2.3h.073a5.509,5.509,0,0,1,4.96-2.726c5.306,0,6.281,3.494,6.281,8.032V25.3Z" transform="translate(1734.356 8332.347)" fill="#0776cb"/>
  </g>
</svg>
