<svg xmlns="http://www.w3.org/2000/svg" width="100" height="80.998" viewBox="0 0 100 80.998">
  <path id="Path_882" data-name="Path 882" d="M21.956,2.148A21.956,21.956,0,1,1,0,24.1,21.957,21.957,0,0,1,21.956,2.148ZM59.505,0A40.375,40.375,0,0,1,88.143,11.865h0a40.468,40.468,0,0,1-.008,57.275h0a40.468,40.468,0,0,1-57.267,0l-.008-.008A40.559,40.559,0,0,1,22.07,55.99a41.13,41.13,0,0,1-1.628-4.736c.846.081,1.709.122,2.58.122a27.039,27.039,0,0,0,4.834-.431c.26.781.545,1.554.854,2.311A33.3,33.3,0,1,0,46.753,9.725c-.35.146-.7.3-1.042.456a27.051,27.051,0,0,0-4.793-5.656c1.009-.521,2.043-1,3.092-1.44A40.214,40.214,0,0,1,59.505,0ZM54.858,21.248a3.589,3.589,0,1,1,7.178,0v18.9l14.119,8.374a3.6,3.6,0,0,1,1.644,2.2,3.552,3.552,0,0,1-.382,2.71v.008h0a3.6,3.6,0,0,1-2.2,1.644,3.552,3.552,0,0,1-2.71-.382H72.5l-15.8-9.367a3.63,3.63,0,0,1-1.318-1.261,3.582,3.582,0,0,1-.529-1.872V21.248Zm-32.9-10.083L33.74,25.732H26.424V33.48H17.489V25.732H10.173L21.956,11.165Z" fill="#fff" fill-rule="evenodd"/>
</svg>
