<svg xmlns="http://www.w3.org/2000/svg" xmlns:xlink="http://www.w3.org/1999/xlink" width="280" height="200" viewBox="0 0 280 200">
  <defs>
    <clipPath id="clip-path">
      <rect id="Rectangle_524" data-name="Rectangle 524" width="280" height="200" transform="translate(322 5050)" fill="#fff"/>
    </clipPath>
  </defs>
  <g id="Mask_Group_1" data-name="Mask Group 1" transform="translate(-322 -5050)" clip-path="url(#clip-path)">
    <g id="Businessman-amico" transform="translate(348.066 5028.394)">
      <g id="freepik--Floor--inject-42">
        <ellipse id="freepik--floor--inject-42-2" data-name="freepik--floor--inject-42" cx="109.217" cy="64.154" rx="109.217" ry="64.154" transform="translate(4.717 93.298)" fill="#f5f5f5"/>
      </g>
      <g id="freepik--Shadows--inject-42">
        <path id="freepik--Shadow--inject-42" d="M53.581,192.517,10.979,167.9,90.455,122.11l42.6,24.614Z" fill="#e0e0e0"/>
        <ellipse id="freepik--shadow--inject-42-2" data-name="freepik--shadow--inject-42" cx="28.711" cy="16.58" rx="28.711" ry="16.58" transform="translate(92.004 159.799)" fill="#e0e0e0"/>
        <path id="freepik--shadow--inject-42-3" data-name="freepik--shadow--inject-42" d="M56.484,191.086l5.15,2.971a4.22,4.22,0,0,0,3.824,0L95.7,176.584a1.167,1.167,0,0,0,0-2.21L90.559,171.4a4.22,4.22,0,0,0-3.824,0l-30.27,17.473A1.172,1.172,0,0,0,56.484,191.086Z" fill="#e0e0e0"/>
        <ellipse id="freepik--shadow--inject-42-4" data-name="freepik--shadow--inject-42" cx="31.264" cy="18.052" rx="31.264" ry="18.052" transform="translate(148.183 148.297)" fill="#e0e0e0"/>
      </g>
      <g id="freepik--Frames--inject-42">
        <g id="freepik--Diploma--inject-42">
          <g id="freepik--Window--inject-42">
            <path id="Path_679" data-name="Path 679" d="M194.923,56.88l-.925.533L170.869,44.056l.925-.533Z" fill="#455a64"/>
            <path id="Path_680" data-name="Path 680" d="M171.794,43.523,194,56.343V37.1l-22.2-12.82Z" fill="#ba68c8"/>
            <g id="Group_900" data-name="Group 900" opacity="0.8">
              <path id="Path_681" data-name="Path 681" d="M171.794,43.523,194,56.343V37.1l-22.2-12.82Z" fill="#fff"/>
            </g>
            <path id="Path_682" data-name="Path 682" d="M169.944,44.594l24.979,14.42V36.564L169.944,22.14Zm.911-20.85L193.984,37.1V57.423L170.869,44.056Z" fill="#37474f"/>
            <path id="Path_683" data-name="Path 683" d="M170.869,44.056l.925-.533V24.277l-.925-.533Z" fill="#263238"/>
            <path id="Path_684" data-name="Path 684" d="M169.944,22.14l.925-.533,24.979,14.424-.925.533Z" fill="#455a64"/>
            <path id="Path_685" data-name="Path 685" d="M195.848,36.031l-.925.533v22.45l.925-.533Z" fill="#263238"/>
          </g>
          <path id="Path_686" data-name="Path 686" d="M189.286,48.121a3.45,3.45,0,0,1,1.559,2.707c0,.994-.7,1.4-1.559.911a3.441,3.441,0,0,1-1.563-2.7C187.722,48.026,188.42,47.624,189.286,48.121Z" fill="#ba68c8"/>
          <path id="Path_687" data-name="Path 687" d="M176.666,29.482l11.758,6.786a1.313,1.313,0,0,1,.592,1.025v.032c0,.378-.269.533-.592.342L176.666,30.89a1.3,1.3,0,0,1-.592-1.025v-.041C176.074,29.45,176.338,29.295,176.666,29.482Z" opacity="0.2"/>
          <g id="Group_901" data-name="Group 901" opacity="0.2">
            <path id="Path_688" data-name="Path 688" d="M174.8,32.685l15.5,8.932a1.189,1.189,0,0,1,.592.88c0,.292-.264.378-.592.191l-15.5-8.942a1.167,1.167,0,0,1-.588-.875C174.21,32.581,174.474,32.494,174.8,32.685Z"/>
            <path id="Path_689" data-name="Path 689" d="M174.8,34.818l15.5,8.937a1.176,1.176,0,0,1,.592.875c0,.3-.264.383-.592.191L174.8,35.88a1.158,1.158,0,0,1-.588-.87C174.21,34.713,174.474,34.636,174.8,34.818Z"/>
            <path id="Path_690" data-name="Path 690" d="M174.8,36.951l15.5,8.937a1.185,1.185,0,0,1,.592.875c0,.3-.264.383-.592.2l-15.5-8.946a1.158,1.158,0,0,1-.588-.87C174.21,36.851,174.474,36.764,174.8,36.951Z"/>
          </g>
          <path id="Path_691" data-name="Path 691" d="M186.506,49.484a1.964,1.964,0,0,1-.387-.346,1.089,1.089,0,0,1-.287-.911c0-.1-.141-.428-.219-.378a6.649,6.649,0,0,1-.67.273c-.132.064-.383.26-.7-.178a.911.911,0,0,1-.178-.551.775.775,0,0,0,.21-.725c0-.114-.182-.456-.237-.36a1.367,1.367,0,0,0-.2.656,1.075,1.075,0,0,1-.5.169,1.413,1.413,0,0,1-.319.064.146.146,0,0,1-.128-.027.31.31,0,0,1-.114-.246.456.456,0,0,1,.05-.255h0c0-.109-.132-.415-.187-.351a.98.98,0,0,1-.911.456.15.15,0,0,1-.059,0,.659.659,0,0,0-.023-.21,2.754,2.754,0,0,0-.073-.506c-.027-.1-.146-.337-.205-.319-.328.1-.592.355-1.03.232a1.413,1.413,0,0,1-.219-.1c-.068-.118.041-.369.055-.41a2.063,2.063,0,0,1,.15-.319.643.643,0,0,0,.128-.269c0-.1-.2-.551-.242-.428a1.689,1.689,0,0,1-.141.287,2.151,2.151,0,0,1-.87.456,1.367,1.367,0,0,1-1.208-.228,1.563,1.563,0,0,1-.547-.561,1.368,1.368,0,0,1-.141-.6,2.348,2.348,0,0,1,.146-.911,4.443,4.443,0,0,0,1.344.6c.369.1.77.205,1.012.05.137-.091.219-.406-.114-.911a1.946,1.946,0,0,0-.72-.7,1.823,1.823,0,0,0-.734-.278.911.911,0,0,0-.911.62l-.1.246a7.26,7.26,0,0,1-1.7-1.682c-.032-.041-.041,0,0,.059a8.354,8.354,0,0,0,1.668,1.768,2.311,2.311,0,0,0,.374,2.1,1.655,1.655,0,0,0,1.65.884,1.34,1.34,0,0,0,.647-.3.191.191,0,0,1,.055,0,1.1,1.1,0,0,0,.355.88.652.652,0,0,0,.734.146,2.774,2.774,0,0,0,.456-.16,1.367,1.367,0,0,0,.333.911c.251.237.456.046.592,0a1.121,1.121,0,0,0,.3-.146.96.96,0,0,0,.059.155c.214.456.456.524.606.5a2.433,2.433,0,0,0,.6-.123,2.347,2.347,0,0,0,.255.583c.333.538.643.624.834.6a1.413,1.413,0,0,0,.624-.278,1.755,1.755,0,0,0,.223.579,2.279,2.279,0,0,0,.784.848C186.715,49.889,186.615,49.552,186.506,49.484Zm-7.242-7.073a1.061,1.061,0,0,1,.492.62c0,.16-.132.187-.21.21a1.873,1.873,0,0,1-.911-.082,4.589,4.589,0,0,1-1.126-.456C177.8,42.078,178.343,41.818,179.264,42.411Z" opacity="0.3"/>
        </g>
        <g id="freepik--diploma--inject-42-2" data-name="freepik--diploma--inject-42">
          <g id="freepik--window--inject-42-2" data-name="freepik--window--inject-42">
            <path id="Path_692" data-name="Path 692" d="M30.065,57.336l.925.533L54.119,44.512l-.925-.533Z" fill="#455a64"/>
            <path id="Path_693" data-name="Path 693" d="M53.194,43.979,30.99,56.8V37.553l22.2-12.82Z" fill="#ba68c8"/>
            <g id="Group_902" data-name="Group 902" opacity="0.8">
              <path id="Path_694" data-name="Path 694" d="M53.194,43.979,30.99,56.8V37.553l22.2-12.82Z" fill="#fff"/>
            </g>
            <path id="Path_695" data-name="Path 695" d="M55.044,22.6,30.079,37.019v22.45L55.062,45.05Zm-.911,21.916L30.99,57.879V37.553L54.123,24.2Z" fill="#37474f"/>
            <path id="Path_696" data-name="Path 696" d="M54.119,44.512l-.925-.533V24.733l.925-.533Z" fill="#263238"/>
            <path id="Path_697" data-name="Path 697" d="M55.044,22.6l-.925-.533L29.135,36.486l.925.533Z" fill="#455a64"/>
            <path id="Path_698" data-name="Path 698" d="M29.135,36.486l.925.533,0,22.45-.93-.533Z" fill="#263238"/>
          </g>
          <path id="Path_699" data-name="Path 699" d="M48.837,40.743c.866-.5,1.563-.091,1.563.911a3.45,3.45,0,0,1-1.563,2.707c-.861.5-1.559.091-1.559-.911a3.45,3.45,0,0,1,1.559-2.707Z" fill="#ba68c8"/>
          <path id="Path_700" data-name="Path 700" d="M36.217,36.678l11.758-6.8c.328-.187.592-.036.592.342v.032a1.317,1.317,0,0,1-.592,1.03l-11.758,6.8c-.328.187-.592.036-.592-.342V37.7A1.3,1.3,0,0,1,36.217,36.678Z" opacity="0.2"/>
          <g id="Group_903" data-name="Group 903" opacity="0.2">
            <path id="Path_701" data-name="Path 701" d="M34.358,42.028l15.5-8.937c.324-.187.592-.1.592.2a1.2,1.2,0,0,1-.592.875L34.358,43.1c-.328.187-.588.1-.588-.2A1.208,1.208,0,0,1,34.358,42.028Z"/>
            <path id="Path_702" data-name="Path 702" d="M34.358,44.161l15.5-8.932c.324-.191.592-.1.592.191a1.189,1.189,0,0,1-.592.875l-15.5,8.942c-.328.191-.588.1-.588-.2A1.217,1.217,0,0,1,34.358,44.161Z"/>
            <path id="Path_703" data-name="Path 703" d="M34.358,46.3l15.5-8.937c.324-.187.592-.1.592.191a1.2,1.2,0,0,1-.592.88L34.344,47.4c-.328.187-.588.1-.588-.2a1.208,1.208,0,0,1,.6-.9Z"/>
          </g>
          <path id="Path_704" data-name="Path 704" d="M46.061,45.314a.911.911,0,0,1-.387.1c-.333,0-.3-.337-.292-.57,0-.1-.141-.264-.219-.128-.2.365-.456.7-.67,1.053-.132.214-.383.7-.7.633-.132-.032-.173-.173-.173-.351a1.718,1.718,0,0,0,.205-.962c0-.1-.182-.228-.232-.091a3.081,3.081,0,0,0-.205.911q-.382.609-.82,1.18c-.027.032-.082.114-.128.123s-.1-.046-.114-.118a.784.784,0,0,1,.055-.319h0a.064.064,0,0,1,0-.027h0c0-.1-.132-.26-.187-.132a4.6,4.6,0,0,1-.911,1.513.223.223,0,0,1-.064.05V48a1.481,1.481,0,0,0-.077-.424c0-.064-.141-.169-.205-.082a7.11,7.11,0,0,1-1.03,1.426,2.17,2.17,0,0,1-.214.15c-.073-.041.036-.415.05-.456.046-.169.1-.333.155-.5a1.714,1.714,0,0,0,.123-.41c0-.128-.2-.324-.237-.15a3.466,3.466,0,0,1-.146.456,11.029,11.029,0,0,1-.866,1.472,3.4,3.4,0,0,1-1.221,1.1c-.141.073-.4.182-.547.073s-.137-.3-.141-.456a3.555,3.555,0,0,1,.146-1.071,6.38,6.38,0,0,0,1.34-.948,4.689,4.689,0,0,0,1.016-1.126c.137-.246.219-.656-.114-.8-.232-.1-.529.064-.725.173a3.217,3.217,0,0,0-.738.574,4.27,4.27,0,0,0-.911,1.686c-.032.1-.068.223-.1.369a2.862,2.862,0,0,1-1.7.287.037.037,0,0,0,0,.073,2.821,2.821,0,0,0,1.668-.16c-.15.647-.232,1.5.369,1.668s1.331-.588,1.654-1.021a7.141,7.141,0,0,0,.647-1.044.807.807,0,0,1,.055-.077c0,.3.059.52.351.456s.57-.456.734-.7.3-.456.456-.665c.027.269.073.579.333.524s.456-.5.592-.684a4.684,4.684,0,0,0,.292-.483.364.364,0,0,0,.059.087c.214.232.456,0,.606-.2.2-.26.419-.533.606-.825a.506.506,0,0,0,.255.292c.328.155.643-.118.834-.365a7.173,7.173,0,0,0,.62-1,.456.456,0,0,0,.228.314.761.761,0,0,0,.779-.05C46.266,45.478,46.171,45.259,46.061,45.314ZM38.82,46.6c.15-.077.456-.205.488.05a.911.911,0,0,1-.21.456,5.578,5.578,0,0,1-.911.957,7.232,7.232,0,0,1-1.13.857A3.646,3.646,0,0,1,38.82,46.6Z" opacity="0.3"/>
        </g>
      </g>
      <g id="freepik--Desk--inject-42">
        <g id="freepik--desk--inject-42-2" data-name="freepik--desk--inject-42">
          <g id="freepik--desk--inject-42-3" data-name="freepik--desk--inject-42">
            <path id="Path_705" data-name="Path 705" d="M52.943,140.941l-38.965-22.5L89.771,74.7l38.97,22.5Z" fill="#ba68c8"/>
            <path id="Path_706" data-name="Path 706" d="M52.943,140.941l-38.965-22.5L89.771,74.7l38.97,22.5Z" fill="#fff" opacity="0.8"/>
            <path id="Path_707" data-name="Path 707" d="M13.977,118.446v49.215l2.051,1.185v-4.735l34.864,20.125v4.74l2.051,1.185v-49.22Z" fill="#ba68c8"/>
            <path id="Path_708" data-name="Path 708" d="M13.977,118.446v49.215l2.051,1.185v-4.735l34.864,20.125v4.74l2.051,1.185v-49.22Z" fill="#fff" opacity="0.6"/>
            <path id="Path_709" data-name="Path 709" d="M16.028,168.846l2.051-1.185v-2.37l-2.051-1.18Z" fill="#ba68c8"/>
            <path id="Path_710" data-name="Path 710" d="M16.028,168.846l2.051-1.185v-2.37l-2.051-1.18Z" fill="#ba68c8"/>
            <path id="Path_711" data-name="Path 711" d="M52.943,190.161l2.051-1.185V145.271l71.7-41.372v43.509l2.051-1.18V97.2l-75.8,43.737Z" fill="#ba68c8"/>
            <path id="Path_712" data-name="Path 712" d="M52.943,190.161l2.051-1.185V145.271l71.7-41.372v43.509l2.051-1.18V97.2l-75.8,43.737Z" fill="#fff" opacity="0.7"/>
            <path id="Path_713" data-name="Path 713" d="M126.69,147.408,89.005,125.656l35.634-20.572,2.051-1.185Z" fill="#ba68c8"/>
            <g id="Group_904" data-name="Group 904" opacity="0.6">
              <path id="Path_714" data-name="Path 714" d="M126.69,147.408,89.005,125.656,126.69,103.9Z" fill="#fff"/>
            </g>
            <g id="Group_905" data-name="Group 905" opacity="0.15">
              <path id="Path_715" data-name="Path 715" d="M126.69,147.408,89.005,125.656,126.69,103.9Z"/>
            </g>
          </g>
          <g id="freepik--Document--inject-42">
            <g id="Group_906" data-name="Group 906" opacity="0.2">
              <path id="Path_716" data-name="Path 716" d="M106.524,100.021c.032.05,0,.114-.064.155L91.111,109.04a.36.36,0,0,1-.191.046.31.31,0,0,1-.187-.046L69.313,96.671a.169.169,0,0,1-.068-.073.1.1,0,0,1,.023-.109h0a.059.059,0,0,1,.027-.023l15.349-8.86a.406.406,0,0,1,.383,0l21.42,12.373h.023a.123.123,0,0,1,.05.046Z"/>
            </g>
            <g id="freepik--List--inject-42">
              <path id="Path_717" data-name="Path 717" d="M70.019,95.582v.369a.4.4,0,0,0,.187.319l20.558,11.849a.4.4,0,0,0,.365,0l14.729-8.5a.41.41,0,0,0,.182-.319v-.369a.41.41,0,0,0-.182-.319L85.3,86.763a.4.4,0,0,0-.365,0L70.206,95.249A.392.392,0,0,0,70.019,95.582Z" fill="#ba68c8"/>
              <path id="Path_718" data-name="Path 718" d="M105.881,98.649c.077.059.068.141-.023.2l-14.711,8.5a.383.383,0,0,1-.182.041v.793a.337.337,0,0,0,.182-.046l14.729-8.5a.41.41,0,0,0,.182-.319V98.95A.406.406,0,0,0,105.881,98.649Z" fill="#fff" opacity="0.4"/>
              <path id="Path_719" data-name="Path 719" d="M70.183,95.285h0l-.027.023h0a.415.415,0,0,0-.1.2.141.141,0,0,1,0,.046v.369a.415.415,0,0,0,.187.319l20.558,11.849a.337.337,0,0,0,.182.046v-.793a.383.383,0,0,1-.182-.041L70.183,95.477a.173.173,0,0,1-.068-.073.1.1,0,0,1,.023-.1Z" opacity="0.15"/>
              <path id="Path_720" data-name="Path 720" d="M75.588,90.322c0,.333.456.679.588.975a.237.237,0,0,1,.027.073c-.064.21-.255.355-.3.5a.346.346,0,0,0,0,.1v.278a1.663,1.663,0,0,0,.023.191,1.56,1.56,0,0,1-.046.205,1.18,1.18,0,0,0-.068.351v.269a.242.242,0,0,0,.141.251l.825.456,6.162-3.541v-.273l-.825-.479a.752.752,0,0,0-.415-.077H81.65a3.569,3.569,0,0,0-.565.036,4.809,4.809,0,0,1-.911.023h-.237a1.162,1.162,0,0,0-.173,0,4.1,4.1,0,0,1-1.44.16h0a11.741,11.741,0,0,0-1.677-.337h-.082a1.367,1.367,0,0,0-.652.173c-.223.128-.305.264-.305.406Zm.911.191a.419.419,0,0,1,.15-.146.788.788,0,0,1,.155-.064,1.6,1.6,0,0,1,1.13.169.839.839,0,0,1,.333.324.419.419,0,0,1-.15.146,1.212,1.212,0,0,1-.839.064,1.7,1.7,0,0,1-.456-.169.811.811,0,0,1-.3-.324Z" fill="#263238"/>
              <path id="Path_721" data-name="Path 721" d="M81.7,89.593h-.055a3.569,3.569,0,0,0-.565.036,4.809,4.809,0,0,1-.911.023h-.237a1.162,1.162,0,0,0-.173,0,4.1,4.1,0,0,1-1.44.16h0a11.742,11.742,0,0,0-1.677-.337h-.077a1.367,1.367,0,0,0-.652.173c-.757.456.1.962.283,1.367s-.21.633-.269.843.1.319-.036.77-.032.538.073.6l.825.456,6.157-3.532-.825-.479A.752.752,0,0,0,81.7,89.593Zm-4.626,3.468a.4.4,0,0,1-.342-.027c-.1-.064-.128-.15-.05-.2a.369.369,0,0,1,.342.027c.1.059.128.15.05.2Zm1.066-2.119a1.212,1.212,0,0,1-.839.064,1.7,1.7,0,0,1-.456-.169c-.406-.237-.488-.565-.182-.743a.789.789,0,0,1,.155-.064,1.6,1.6,0,0,1,1.13.169C78.387,90.436,78.446,90.764,78.141,90.942Zm3.691-.629a.392.392,0,0,1-.337-.027c-.109-.064-.128-.15-.05-.2a.369.369,0,0,1,.342.027c.1.059.128.146.046.2Z" fill="#37474f"/>
              <path id="Path_722" data-name="Path 722" d="M90.377,106.054l12.815-7.4a.255.255,0,0,0,.109-.191v-.141a.246.246,0,0,0-.109-.191L86.257,88.358a.232.232,0,0,0-.219,0l-12.815,7.4a.255.255,0,0,0-.109.191v.141a.246.246,0,0,0,.109.191l16.931,9.776A.242.242,0,0,0,90.377,106.054Z" fill="#f5f5f5"/>
              <path id="Path_723" data-name="Path 723" d="M94.907,100.526l4.425-2.552.16.091-4.425,2.552Z" fill="#e0e0e0"/>
              <path id="Path_724" data-name="Path 724" d="M89.593,103.593l4.425-2.557.16.1-4.425,2.552Z" fill="#e0e0e0"/>
              <path id="Path_725" data-name="Path 725" d="M103.22,98.152c.032.036,0,.077-.027.109l-12.815,7.4a.228.228,0,0,1-.109.027v.4a.232.232,0,0,0,.114-.027l12.815-7.4a.237.237,0,0,0,.109-.187v-.141a.251.251,0,0,0-.087-.173Z" fill="#fafafa"/>
              <path id="Path_726" data-name="Path 726" d="M73.2,95.773l-.027.032h0a.378.378,0,0,0-.032.059.133.133,0,0,0,0,.041.059.059,0,0,0,0,.027v.141a.246.246,0,0,0,.109.191l16.931,9.776a.228.228,0,0,0,.109.027v-.4a.232.232,0,0,1-.114-.027L73.246,95.869C73.173,95.855,73.164,95.81,73.2,95.773Z" fill="#e0e0e0"/>
              <path id="Path_727" data-name="Path 727" d="M91.27,101.593c-.041.05,0,.109.046.155a.51.51,0,0,1-.046.219.269.269,0,0,1-.1.15.174.174,0,0,1-.191-.041c-.041-.041-.055,0-.059,0a.409.409,0,0,0,0,.077.346.346,0,0,1-.073-.041.223.223,0,0,0-.087-.046h-.05a.15.15,0,0,0,0,.109c0,.041.032.1,0,.137s-.1-.027-.114-.041a.689.689,0,0,1-.082-.118H90.45a.661.661,0,0,1,0,.164.762.762,0,0,1-.05.242c0,.027-.046.123-.114.123a.1.1,0,0,1-.082-.05v-.073a.574.574,0,0,0,0-.36.264.264,0,0,0-.059-.068.059.059,0,0,0-.055,0,.128.128,0,0,0-.064.146,1.367,1.367,0,0,0,.032.146.593.593,0,0,0,.036.155.155.155,0,0,0,.027.055.579.579,0,0,1-.1.21c-.055.064-.219.191-.351.1a.392.392,0,0,1-.16-.242v-.077a.875.875,0,0,0,.164-.21.565.565,0,0,0,.064-.205.456.456,0,0,0,0-.255.082.082,0,0,0-.064-.064.173.173,0,0,0-.118,0,.21.21,0,0,0-.109.182,1.4,1.4,0,0,0-.032.242,1.139,1.139,0,0,0,.036.324,1.4,1.4,0,0,1-.237.178h0a1.272,1.272,0,0,0,.228-.164h0a.51.51,0,0,0,.155.273.283.283,0,0,0,.15.055.392.392,0,0,0,.214-.055.424.424,0,0,0,.21-.269H90.2a.178.178,0,0,0,.214-.064.588.588,0,0,0,.087-.251v-.132l.036.041a.182.182,0,0,0,.182.041c.059-.027.036-.091.032-.123s0-.059-.023-.087,0-.023,0-.032.087.082.182.073a.036.036,0,0,0,.032,0,.109.109,0,0,0,0-.055.342.342,0,0,0,.182.032.214.214,0,0,0,.155-.141.546.546,0,0,0,.059-.178l.1.16a2.735,2.735,0,0,1,.232.52l.1.3h.064a3.922,3.922,0,0,0-.242-.656,3.32,3.32,0,0,0-.182-.328c0-.032-.046-.064-.064-.1a.232.232,0,0,0-.05-.141A.413.413,0,0,1,91.27,101.593Zm-1.782.884a1.321,1.321,0,0,1,0-.232.839.839,0,0,1,.027-.187.16.16,0,0,1,.132-.123.064.064,0,0,1,.068.041.419.419,0,0,1,0,.237.631.631,0,0,1-.21.424,1.063,1.063,0,0,1-.018-.16Zm.67,0a.742.742,0,0,0-.032-.137.073.073,0,1,1,.064,0,.78.78,0,0,1,0,.178v.027a.269.269,0,0,1-.032-.059Z" fill="#37474f"/>
              <path id="Path_728" data-name="Path 728" d="M92.71,100.718h-.059a.064.064,0,0,0,.032.05h0a.237.237,0,0,1,0,.077.515.515,0,0,1,0,.146v.064a.073.073,0,0,1,0,.032h-.059l-.082-.032h-.055a.278.278,0,0,1,0,.137H92.46c-.027,0-.041,0-.05-.027a.278.278,0,0,0-.082-.05h-.046a.259.259,0,0,0,0,.082s.027.082,0,.1-.059-.027-.087-.068a.091.091,0,0,0-.055-.1h-.05a.137.137,0,0,0,.041.1h0a.428.428,0,0,1-.027.128.305.305,0,0,1-.114.2.141.141,0,0,1-.169-.027.456.456,0,0,0,0-.26.629.629,0,0,0-.324-.383h-.041c-.046.023-.036.068-.032.1a.583.583,0,0,0,.05.141,1.577,1.577,0,0,0,.178.3.551.551,0,0,0,.128.123.292.292,0,0,1-.055.114h.023a.337.337,0,0,0,.064-.1.246.246,0,0,0,.191.027.269.269,0,0,0,.164-.2.992.992,0,0,0,.032-.109.119.119,0,0,0,.1.032c.1,0,.068-.1.05-.164a.173.173,0,0,0,.059.041.141.141,0,0,0,.114,0h-.009a.242.242,0,0,0,0-.059.36.36,0,0,0,.118.036c.087,0,.1-.064.1-.1a.689.689,0,0,0,.027-.164.059.059,0,0,0,0-.027h0a1.949,1.949,0,0,1,.132.15,1.131,1.131,0,0,1,.15.223.456.456,0,0,0-.2.1c-.068.064-.155.223.036.251a.228.228,0,0,0,.273-.173.305.305,0,0,0-.032-.155.688.688,0,0,1,.169,0c.036,0,.055-.023,0-.027a.707.707,0,0,0-.2,0,.871.871,0,0,0-.073-.123l-.132-.164c-.032-.036-.068-.068-.1-.1l-.05-.036a.141.141,0,0,0-.027-.077Zm-1.048.734a1.659,1.659,0,0,1-.155-.255.811.811,0,0,1-.055-.132c0-.023-.027-.068,0-.1a.62.62,0,0,1,.292.351.524.524,0,0,1,0,.237.593.593,0,0,1-.082-.091Zm1.367.05a.169.169,0,0,1-.169,0c-.05-.041,0-.1,0-.146a.333.333,0,0,1,.2-.123.2.2,0,0,1-.023.278Z" fill="#37474f"/>
              <path id="Path_729" data-name="Path 729" d="M95.249,99.474a.082.082,0,0,0-.041.068.688.688,0,0,0-.032.169.242.242,0,0,0-.1-.055h-.046a.123.123,0,0,0-.05.059.187.187,0,0,0-.173-.059.191.191,0,0,0-.137.141.565.565,0,0,0,0,.073c-.027-.064-.055-.128-.077-.191a.761.761,0,0,0-.16-.328.242.242,0,0,0-.287-.091.26.26,0,0,0-.109.1.456.456,0,0,0-.064.141v.068l-.15-.077H93.8l.182.1a.811.811,0,0,0,0,.21.642.642,0,0,0,.068.219.1.1,0,0,0,.059.059.109.109,0,0,0,.1,0c.114-.082.077-.21.023-.3a.51.51,0,0,0-.2-.173.4.4,0,0,1,.132-.3.1.1,0,0,1,.155,0,.51.51,0,0,1,.1.1,1.067,1.067,0,0,1,.128.287,2.443,2.443,0,0,0,.114.283v.027a.337.337,0,0,0,.046.255h.064a.387.387,0,0,0-.041-.255h0a.811.811,0,0,1,.036-.205.191.191,0,0,1,.073-.091.082.082,0,0,1,.082.023.314.314,0,0,1,.077.118V99.9h.068a.289.289,0,0,1,0-.032.269.269,0,0,1,0-.064.132.132,0,0,1,.027-.087c.068.032.1.1.132.137s.073,0,.064,0a.342.342,0,0,1,0-.251.264.264,0,0,1,.023-.064.178.178,0,0,1,.036.064.2.2,0,0,0,.036.137.577.577,0,0,1,.059.146,1.9,1.9,0,0,0,.16.278,1.062,1.062,0,0,0,.255.287h.041a3.066,3.066,0,0,1-.251-.305,2.325,2.325,0,0,1-.173-.333,1.152,1.152,0,0,1-.055-.164.182.182,0,0,0-.064-.128.082.082,0,0,0-.1-.046Zm-1.148.242a.264.264,0,0,1,.087.278.232.232,0,0,1-.041.059h0a.091.091,0,0,1-.041-.059.706.706,0,0,1-.055-.191,1.067,1.067,0,0,1,0-.178.711.711,0,0,1,.059.091Z" fill="#37474f"/>
              <path id="Path_730" data-name="Path 730" d="M96.926,98.95a.419.419,0,0,0-.2,0l-.087-.077a1.824,1.824,0,0,0-.21-.132h-.064a.62.62,0,0,1,.059.191.168.168,0,0,1,0,.1c-.023.027-.059,0-.091,0h-.055a.342.342,0,0,0,0,.068s-.077-.036-.1-.041a.139.139,0,0,0-.046,0s.027.064,0,.091l-.073-.046H96.01a.428.428,0,0,1,.027.068s.023.064,0,.077,0,0-.032,0l-.036-.027a.31.31,0,0,0-.077-.041h-.046a.948.948,0,0,0,0,.1v.064s0,.041-.027.05-.191-.173-.205-.2-.059,0-.055,0a1.217,1.217,0,0,1,.064.164c0,.055.027.137-.082.16h0a.128.128,0,0,0,.118-.15s0,0,0-.027a.173.173,0,0,0,.155.068.087.087,0,0,0,.077-.1.972.972,0,0,0,0-.114c.05.036.1.082.164.055s.036-.05.032-.077a.164.164,0,0,0,0-.046h.073c.05,0,.046-.05.036-.082a.119.119,0,0,0,.1.023c.046,0,.041-.041.041-.064a.178.178,0,0,0,.109,0,.1.1,0,0,0,.05-.091.456.456,0,0,0-.032-.173l.082.05a.725.725,0,0,1,.123.109l-.055.036c-.046.036-.055.109.05.118s.128-.059.114-.1a.137.137,0,0,0-.027-.05.429.429,0,0,1,.155,0C96.935,98.986,96.972,98.954,96.926,98.95Zm-.219.132c0,.027-.046.036-.059,0s0-.05.046-.068h0a.059.059,0,0,1,.014.068Z" fill="#37474f"/>
              <path id="Path_731" data-name="Path 731" d="M96.963,97.637c.027.1.064.191.091.283a2.058,2.058,0,0,1,.055.292,1.538,1.538,0,0,0,.032.287h0a1.982,1.982,0,0,0-.155-.187.911.911,0,0,0-.232-.169.283.283,0,0,0-.242,0,.223.223,0,0,0-.082.059h-.1a.255.255,0,0,1-.1,0h-.027c.018,0,.146.023.214.032h0a.3.3,0,0,0-.041.087.228.228,0,0,0,.027.187.223.223,0,0,0,.178.087.159.159,0,0,0,.16-.123.244.244,0,0,0-.15-.21.455.455,0,0,0-.1-.036.164.164,0,0,1,.05-.046.2.2,0,0,1,.205,0,.912.912,0,0,1,.2.16,2.309,2.309,0,0,1,.164.205l.05.068h0a.1.1,0,0,0,.041.1h.059a.173.173,0,0,0-.036-.109h0l-.027-.15a.869.869,0,0,0-.032-.283,1.226,1.226,0,0,0-.164-.542S96.958,97.623,96.963,97.637Zm-.314.725a.114.114,0,0,1-.027.173.111.111,0,0,1-.16-.05.214.214,0,0,1-.032-.164.315.315,0,0,1,.041-.091.305.305,0,0,1,.178.132Z" fill="#37474f"/>
              <path id="Path_732" data-name="Path 732" d="M98.986,97.833a1.864,1.864,0,0,0-.383-.456h-.064a.656.656,0,0,1,.064.242.082.082,0,0,1-.027.064.092.092,0,0,0-.068.032.059.059,0,0,0-.032.05.514.514,0,0,0-.082-.055h-.059a.374.374,0,0,0,0,.1v.077a.579.579,0,0,1-.132-.123h-.068a.57.57,0,0,0,0,.128.456.456,0,0,1,0,.077v.05h-.027a.341.341,0,0,1-.046-.077.337.337,0,0,1-.036-.132c0-.023-.064-.023-.064,0a3.329,3.329,0,0,1,0,.369.351.351,0,0,1-.073.182.36.36,0,0,1-.087.077.378.378,0,0,1-.137.059c-.046,0-.055-.041-.059-.059a.478.478,0,0,1-.027-.109s0-.041,0-.059a.337.337,0,0,0,.155-.355.091.091,0,0,0-.118-.082.073.073,0,0,0-.05.055.807.807,0,0,0,0,.091c0,.077-.027.155-.032.232v.059l-.05.036h.041a.165.165,0,0,0,0,.05.319.319,0,0,0,.036.123c.041.073.164.041.242,0a.424.424,0,0,0,.191-.173.552.552,0,0,0,.046-.283l.032.027a.141.141,0,0,0,.146,0,.137.137,0,0,0,0-.123.352.352,0,0,0,0-.068.625.625,0,0,0,.1.077h.046a.077.077,0,0,0,.055-.087.355.355,0,0,0,0-.073.753.753,0,0,0,.087.046h.055v-.059a.164.164,0,0,1,.068-.036.123.123,0,0,0,.055-.1.328.328,0,0,0-.032-.128,1.822,1.822,0,0,1,.219.3c0,.032.041.059.059.087a.41.41,0,0,0-.21.146.3.3,0,0,0-.059.141.187.187,0,0,0,.05.164.287.287,0,0,0,.255.041.232.232,0,0,0,.155-.141.456.456,0,0,0-.109-.333h.073a.274.274,0,0,0-.1-.064Zm-1.417.205v-.15a.141.141,0,0,1,0-.036v-.023h0a.137.137,0,0,1,0,.036.351.351,0,0,1,0,.169.273.273,0,0,1-.1.146,1.419,1.419,0,0,1,.1-.141Zm1.467,0a.228.228,0,0,1,0,.155.187.187,0,0,1-.169.109.146.146,0,0,1-.15-.141.26.26,0,0,1,0-.114.36.36,0,0,1,.2-.191.7.7,0,0,1,.118.2Z" fill="#37474f"/>
              <path id="Path_733" data-name="Path 733" d="M87.342,90.614l.15.087c.082.046.082.118,0,.169L77.206,96.794a.328.328,0,0,1-.292,0l-.15-.087a.087.087,0,0,1,0-.169L87.05,90.614a.3.3,0,0,1,.292,0Z" fill="#e0e0e0"/>
              <path id="Path_734" data-name="Path 734" d="M88.244,91.147l.146.082c.082.05.082.123,0,.169L78.1,97.323a.328.328,0,0,1-.292,0l-.15-.087a.087.087,0,0,1,0-.169l10.3-5.92A.31.31,0,0,1,88.244,91.147Z" fill="#e0e0e0"/>
              <path id="Path_735" data-name="Path 735" d="M89.138,91.649l.146.087a.091.091,0,0,1,0,.169L78.993,97.828a.328.328,0,0,1-.292,0l-.15-.087a.087.087,0,0,1,0-.169l10.291-5.925A.328.328,0,0,1,89.138,91.649Z" fill="#e0e0e0"/>
              <path id="Path_736" data-name="Path 736" d="M91.115,92.793l.15.087c.082.046.082.118,0,.169L80.98,98.972a.337.337,0,0,1-.3,0l-.146-.087a.087.087,0,0,1,0-.169l10.286-5.925a.314.314,0,0,1,.292,0Z" fill="#e0e0e0"/>
              <path id="Path_737" data-name="Path 737" d="M92.018,93.312l.146.082c.082.05.082.123,0,.173L81.878,99.492a.328.328,0,0,1-.292,0l-.15-.087a.087.087,0,0,1,0-.169l10.286-5.925A.31.31,0,0,1,92.018,93.312Z" fill="#e0e0e0"/>
              <path id="Path_738" data-name="Path 738" d="M92.911,93.827l.146.087a.087.087,0,0,1,0,.169l-10.286,5.925a.328.328,0,0,1-.292,0l-.15-.087a.087.087,0,0,1,0-.169l10.291-5.925A.328.328,0,0,1,92.911,93.827Z" fill="#e0e0e0"/>
              <path id="Path_739" data-name="Path 739" d="M94.889,94.971l.15.087c.082.046.082.118,0,.169l-10.272,5.947a.337.337,0,0,1-.3,0l-.146-.087a.087.087,0,0,1,0-.169l10.286-5.925A.328.328,0,0,1,94.889,94.971Z" fill="#e0e0e0"/>
              <path id="Path_740" data-name="Path 740" d="M95.791,95.49l.146.087c.082.046.082.118,0,.169L85.651,101.67a.328.328,0,0,1-.292,0l-.15-.087a.087.087,0,0,1,0-.169L95.5,95.49A.31.31,0,0,1,95.791,95.49Z" fill="#e0e0e0"/>
              <path id="Path_741" data-name="Path 741" d="M96.685,96.005l.146.087a.087.087,0,0,1,0,.169l-10.286,5.925a.3.3,0,0,1-.292,0l-.15-.087c-.082-.046-.082-.118,0-.169l10.291-5.925A.328.328,0,0,1,96.685,96.005Z" fill="#e0e0e0"/>
              <path id="Path_742" data-name="Path 742" d="M77.566,93.987v.273a.633.633,0,0,0,.146.378l7.552-4.357v-.273a1.627,1.627,0,0,0-.738-.187h0a1.18,1.18,0,0,0-.5.1c-.547.246-.706.324-1.044.456a.533.533,0,0,1-.51-.073h0l-.228-.205-.611-.57a.365.365,0,0,0-.287-.091h0a.57.57,0,0,0-.141,0,2.119,2.119,0,0,1-.629,0,1.3,1.3,0,0,1-.679-.26,1.586,1.586,0,0,0-1.053-.369h-.032a1.572,1.572,0,0,0-.7.169.747.747,0,0,0-.456.816.734.734,0,0,0,.264.7.56.56,0,0,1,.169.324.711.711,0,0,1-.15.351.31.31,0,0,0-.082.182v.278a.182.182,0,0,0,.068.137l.711.647.223.21a.055.055,0,0,1,.023.023.305.305,0,0,1-.05.073l-.911.716a.761.761,0,0,0-.355.547Zm2.019-4.143a.52.52,0,0,1-.264.278,1.039,1.039,0,0,1-.793.046.843.843,0,0,1-.305-.173.565.565,0,0,1-.146-.21.529.529,0,0,1,.269-.278l.1-.05a1.044,1.044,0,0,1,.989.173.62.62,0,0,1,.146.214Z" fill="#37474f"/>
              <path id="Path_743" data-name="Path 743" d="M84.525,89.821h0a1.18,1.18,0,0,0-.5.1c-.547.246-.706.324-1.044.456a.533.533,0,0,1-.51-.073h0l-.228-.205-.611-.57a.365.365,0,0,0-.287-.091h0a.57.57,0,0,0-.141,0,2.119,2.119,0,0,1-.629,0,1.3,1.3,0,0,1-.679-.26,1.586,1.586,0,0,0-1.053-.369h-.032a1.572,1.572,0,0,0-.7.169.72.72,0,0,0-.191,1.244.747.747,0,0,1,0,.948c-.173.21,0,.324,0,.324l.711.647.223.205c.169.155-.027.374-.027.374l-.911.716c-.4.355-.374.643-.169.911L85.3,89.994A1.627,1.627,0,0,0,84.525,89.821Zm-5.086-.456a.456.456,0,0,1-.118.766,1.039,1.039,0,0,1-.793.046A.843.843,0,0,1,78.223,90a.456.456,0,0,1,.123-.766l.1-.046a1.044,1.044,0,0,1,.989.164Z" fill="#455a64"/>
            </g>
          </g>
          <g id="freepik--Pen--inject-42">
            <path id="Path_744" data-name="Path 744" d="M71.683,107.2l11.184,6.462,1.914.392a.059.059,0,0,0,.064-.087l-.6-1.1-11.184-6.462C72.681,106.187,71.391,107.03,71.683,107.2Z" opacity="0.2"/>
            <g id="freepik--pen--inject-42-2" data-name="freepik--pen--inject-42">
              <path id="Path_745" data-name="Path 745" d="M72.918,105.325h.055l-.109-.059h-.087a.479.479,0,0,0-.228.068,1.135,1.135,0,0,0-.542.852.579.579,0,0,0,0,.128.041.041,0,0,0,0,.023h0a.255.255,0,0,0,.041.077h0l.123.068a.427.427,0,0,1-.055-.041.415.415,0,0,0,.3-.064,1.135,1.135,0,0,0,.51-.889.41.41,0,0,0,0-.164Zm-.761,1.221Z" fill="#ba68c8"/>
              <path id="Path_746" data-name="Path 746" d="M83.655,111.51l-.711,1.258-.123-.068-10.55-6.093a.428.428,0,0,1-.055-.041.424.424,0,0,1-.091-.292,1.126,1.126,0,0,1,.51-.884.456.456,0,0,1,.228-.073h.123Z" fill="#f0f0f0"/>
              <path id="Path_747" data-name="Path 747" d="M83.29,111.546c.283-.164.515-.027.515.3a1.139,1.139,0,0,1-.515.911c-.283.164-.51.032-.51-.3a1.135,1.135,0,0,1,.51-.911Z" fill="#ba68c8"/>
              <path id="Path_748" data-name="Path 748" d="M84.393,112.307h0l-.652-.72h0a.337.337,0,0,0-.41,0,1.135,1.135,0,0,0-.51.911c0,.191.077.314.2.351h.036l.948.205a.237.237,0,0,0,.169-.032.661.661,0,0,0,.292-.51.26.26,0,0,0-.068-.205Z" fill="#e0e0e0"/>
              <path id="Path_749" data-name="Path 749" d="M76.017,107.64h0a.132.132,0,0,0-.118,0,.392.392,0,0,0-.182.314.137.137,0,0,0,.041.109h.023l7.77,4.5.51-.292Z" fill="#455a64"/>
              <path id="Path_750" data-name="Path 750" d="M82.826,112.166l.725.415.51-.292-.98-.565a1.194,1.194,0,0,0-.255.442Z" fill="#37474f"/>
              <path id="Path_751" data-name="Path 751" d="M84.653,112.649h0L84.061,112h0a.237.237,0,0,0-.292,0,.793.793,0,0,0-.36.624c0,.137.05.223.137.251h.023l.87.187h0a.155.155,0,0,0,.1,0,.369.369,0,0,0,.164-.287.15.15,0,0,0-.046-.123Z" fill="#ba68c8"/>
              <path id="Path_752" data-name="Path 752" d="M84.653,112.649h0L84.061,112h0a.237.237,0,0,0-.292,0,.793.793,0,0,0-.36.624c0,.137.05.223.137.251h.023l.87.187h0a.155.155,0,0,0,.1,0,.369.369,0,0,0,.164-.287.15.15,0,0,0-.046-.123Z" opacity="0.1"/>
              <path id="Path_753" data-name="Path 753" d="M84.685,112.745a.369.369,0,0,1-.164.287.155.155,0,0,1-.1,0h0l-.456-.1c-.073,0-.118-.077-.118-.182a.592.592,0,0,1,.264-.456.178.178,0,0,1,.214,0h0l.3.324h0a.15.15,0,0,1,.059.123Z" fill="#ba68c8"/>
              <path id="Path_754" data-name="Path 754" d="M84.521,112.649a.1.1,0,0,1,.164.1.369.369,0,0,1-.164.287.1.1,0,0,1-.164-.1.369.369,0,0,1,.164-.287Z" opacity="0.1"/>
              <path id="Path_755" data-name="Path 755" d="M74.08,106.524a.128.128,0,0,0-.132,0,.392.392,0,0,0-.178.314.128.128,0,0,0,.05.118h0l1.919,1.107a.137.137,0,0,1-.041-.109.392.392,0,0,1,.182-.314.132.132,0,0,1,.118,0Z" fill="#fafafa"/>
              <path id="Path_756" data-name="Path 756" d="M74.13,106.642a.392.392,0,0,1-.182.314.114.114,0,0,1-.123,0,.123.123,0,0,1-.055-.118.392.392,0,0,1,.178-.314.128.128,0,0,1,.132,0,.123.123,0,0,1,.05.118Z" fill="#f5f5f5"/>
              <path id="Path_757" data-name="Path 757" d="M73.725,105.863h0l-.757-.456h0a.324.324,0,0,0-.314.041,1.012,1.012,0,0,0-.456.8.314.314,0,0,0,.137.3h0L73.1,107h0a.328.328,0,0,0,.319-.032,1.025,1.025,0,0,0,.456-.8A.328.328,0,0,0,73.725,105.863Z" fill="#ba68c8"/>
              <path id="Path_758" data-name="Path 758" d="M73.725,105.863h0l-.757-.456h0a.324.324,0,0,0-.314.041,1.012,1.012,0,0,0-.456.8.314.314,0,0,0,.137.3h0L73.1,107h0a.328.328,0,0,0,.319-.032,1.025,1.025,0,0,0,.456-.8A.328.328,0,0,0,73.725,105.863Z" opacity="0.05"/>
              <path id="Path_759" data-name="Path 759" d="M73.374,105.89c.255-.146.456-.027.456.264a1.025,1.025,0,0,1-.456.8c-.255.146-.456.027-.456-.269a1.021,1.021,0,0,1,.456-.8Z" opacity="0.1"/>
              <path id="Path_760" data-name="Path 760" d="M84.895,112.927h0l-.314-.191h0a.05.05,0,0,0-.059,0,.173.173,0,0,0-.087.146.055.055,0,0,0,.027.055h0l.31.187h0a.128.128,0,0,0,.059,0,.1.1,0,0,0,.064-.2Z" fill="#455a64"/>
              <path id="Path_761" data-name="Path 761" d="M84.913,112.941h0a.05.05,0,0,0-.055,0,.191.191,0,0,0-.087.146.064.064,0,0,0,.023.055h.055a.118.118,0,0,0,.118-.118.109.109,0,0,0-.055-.082Z" fill="#263238"/>
            </g>
          </g>
          <g id="freepik--Keyboard--inject-42">
            <path id="freepik--shadow--inject-42-5" data-name="freepik--shadow--inject-42" d="M46.512,127.784l8.2,4.74a1.007,1.007,0,0,0,.911,0l24.186-13.946a.283.283,0,0,0,0-.533l-8.2-4.74a1.025,1.025,0,0,0-.911,0L46.512,127.251a.278.278,0,0,0,0,.533Z" opacity="0.2"/>
            <g id="freepik--keyboard--inject-42-2" data-name="freepik--keyboard--inject-42">
              <path id="Path_762" data-name="Path 762" d="M79.3,117.211a.324.324,0,0,0-.187-.264L71.418,112.5a1.012,1.012,0,0,0-.911,0L47.037,126.08a.324.324,0,0,0-.191.264v.807a.324.324,0,0,0,.191.264l7.688,4.439a1.012,1.012,0,0,0,.911,0L79.111,118.3a.319.319,0,0,0,.187-.264Z" fill="#ebebeb"/>
              <path id="Path_763" data-name="Path 763" d="M54.729,131.029l-7.688-4.421a.278.278,0,0,1,0-.529L70.512,112.5a1.012,1.012,0,0,1,.911,0l7.693,4.443a.278.278,0,0,1,0,.529l-23.47,13.549A1.012,1.012,0,0,1,54.729,131.029Z" fill="#fff"/>
              <path id="Path_764" data-name="Path 764" d="M55.144,131.134v.825a.911.911,0,0,1-.456-.1L47,127.415a.324.324,0,0,1-.191-.264v-.811a.333.333,0,0,0,.191.269l7.684,4.421A.912.912,0,0,0,55.144,131.134Z" fill="#e0e0e0"/>
              <path id="Path_765" data-name="Path 765" d="M55.19,130.341h0l-.761-.456,1.03-.6.788.456-1.048.6ZM54,129.652h0l-.761-.456.811-.456.788.456-.811.456Zm2.634-.146h0l-.761-.456.811-.456.788.456-.811.456Zm-3.828-.542h0l-.761-.456,1.313-.757.788.456-1.331.766Zm2.415,0h0l-.761-.456.643-.369.788.456-.643.369Zm2.634-.146h0l-.761-.456.811-.456.788.456-.811.456Zm-1.581-.456h0l-.761-.456.647-.374.784.456-.643.374Zm-4.658-.064h0l-.761-.456,1.035-.6.784.456-1.03.6Zm7.46-.178h0l-.761-.456,5.861-3.386.788.456L59.1,128.117Zm-4.557-.128h0l-.761-.456.643-.369.788.456-.643.369Zm2.8-.242h0l-.761-.456.643-.369.788.456-.643.369Zm-6.9-.146h0l-.761-.456.647-.369.788.456-.647.369Zm2.634-.141h0l-.761-.456.643-.369.788.456-.643.369Zm2.525-.082h0l-.761-.456.647-.374.784.456-.643.374Zm2.8-.242h0l-.761-.456.643-.374.788.456-.643.374ZM51.5,127h0l-.761-.456.643-.374.788.456-.643.374Zm2.634-.146h0l-.761-.456.643-.374.788.456-.643.374Zm2.525-.082h0l-.761-.456.643-.374.788.456-.643.369Zm-7.661,0h0l-.761-.456.811-.456.788.456-.811.456Zm10.459-.242h0l-.761-.456.647-.369.784.456-.643.369Zm-6.9-.141h0l-.761-.456.647-.374.784.456-.643.374Zm2.634-.146h0l-.761-.456.647-.369.784.456-.643.369Zm2.525-.077h0l-.761-.456.643-.369.788.456-.643.369Zm2.8-.242h0l-.761-.456.643-.374.788.456-.643.374Zm-9.853-.137h0l-.761-.456.643-.369.788.456-.643.369Zm2.93,0h0l-.761-.456.643-.369.788.456-.643.369Zm2.639-.146h0l-.761-.456.643-.374.788.456-.643.374Zm2.52-.082h0l-.761-.456.647-.374.788.456-.647.374Zm2.8-.242h0l-.761-.456.643-.374.788.456-.643.369Zm-9.835-.118h0l-.761-.456.643-.374.788.456-.643.374Zm2.93-.023h0l-.761-.456.643-.374.788.456-.643.374Zm2.634-.146h0l-.761-.456.643-.374.788.456-.643.369Zm2.525-.082h0l-.761-.456.643-.369.788.456-.643.369Zm2.8-.237h0l-.761-.456.647-.369.784.456-.643.369Zm-9.835-.123h0L52,124.129l.647-.374.788.456-.647.369Zm2.93-.023h0l-.761-.456.647-.369.784.456-.643.369Zm9.653-.064h0l-.761-.456.811-.456.784.456-.807.456Zm-7.014-.082h0l-.761-.456.647-.374.788.456Zm2.525-.082h0l-.761-.456.647-.374.784.456-.643.374Zm2.8-.242h0l-.761-.456.643-.374.788.456-.643.374Zm-9.839-.132h0l-.761-.456.643-.374.788.456-.643.369Zm2.93,0h0l-.761-.456.643-.374.788.456-.643.374Zm2.634-.146h0l-.761-.456.643-.374.788.456-.643.374Zm7.182,0h0l-.761-.456.811-.456.784.456-.807.456Zm-4.662-.064h0l-.761-.456.647-.369.788.456-.647.369Zm2.807-.246h0l-.761-.456.647-.369.784.456Zm-6.9-.141h0l-.761-.456.643-.369.788.456-.643.369Zm2.634-.146h0l-.761-.456.647-.369.784.456-.643.369Zm2.525-.077h0l-.761-.456.643-.374.788.456L63,123.14Zm-7.629,0h0l-.761-.456.643-.374.788.456-.643.374Zm12.451,0h0l-.761-.456.811-.456.784.456-.807.456Zm-2.023-.205h0L65,122.479l.647-.374.788.456-.647.374Zm-6.9-.141h0l-.761-.456.647-.374.788.456-.647.374Zm2.634-.146h0l-.766-.456.647-.374.788.456-.643.319Zm2.525-.082h0l-.761-.456.647-.374.784.456-.643.369Zm-7.629,0h0l-.761-.456.647-.369.784.456-.643.369Zm12.619-.109h0L68.247,122l1.035-.6.788.456-1.035.6Zm-2.188-.114h0l-.761-.456,2.033-1.171.784.456-2.028,1.171Zm-6.914-.205h0l-.761-.456.643-.374.788.456-.643.369Zm2.639-.146h0l-.761-.456.643-.369.788.456-.643.369Zm2.52-.077h0l-.761-.456.643-.369.788.456-.647.369Zm-7.629,0h0l-.766-.456.647-.374.788.456-.647.374Zm3.527-.365h0l-.761-.456.647-.369.784.456-.643.369Zm9.707-.1h0l-.761-.456.643-.374.788.456-.643.374ZM63.6,121.4h0l-.761-.456.647-.374.784.456-.643.374Zm2.525-.082h0l-.761-.456.588-.342a.128.128,0,0,0,.068-.1.137.137,0,0,0-.073-.114l-1-.579.757-.433,1.978,1.13-1.531.884Zm-7.629,0h0l-.761-.456.643-.374.788.456-.643.369Zm3.523-.365h0l-.761-.456.643-.374.788.456-.647.374Zm9.707-.1h0l-.761-.456.647-.374.784.456-.643.369Zm-7.073-.046h0l-.766-.456.647-.374.788.456-.647.369Zm-4.644-.365h0l-.761-.456.643-.369.788.456-.643.369Zm3.067-.1h0l-.761-.456.643-.369.788.456-.643.369Zm9.7-.1h0l-.761-.456.647-.369.788.456-.647.369Zm-2.247-.082h0l-.761-.456.643-.374.788.456-.643.369Zm-9.466-.378h0l-.761-.456.647-.374.784.456-.643.374Zm3.067-.1h0l-.761-.456,1.144-.661.788.456-1.144.661Zm9.926-.228h0l-.761-.456,1.7-.98.788.456-1.7.98Zm-6.959-.109h0l-.761-.456.647-.374.784.456-.643.374Zm-4.981-.173h0l-.761-.456.643-.369.788.456-.643.369Zm10.751-.406h0l-.761-.456.647-.374.784.456-.643.374Zm-4.717-.032h0l-.761-.456.643-.369.788.456-.643.369Zm-2.242-.077h0l-.761-.456.643-.374.788.456-.643.374Zm-2.734-.091h0l-.761-.456.643-.374.788.456-.643.374Zm12.993-.328h0l-.761-.456.647-.374.784.456-.643.374Zm-2.247-.082h0l-.761-.456.647-.369.784.456-.643.369Zm-4.712-.027h0l-.761-.456.643-.374.788.456-.643.374Zm2.466-.05h0l-.761-.456.643-.374.788.456-.643.374Zm-4.717-.05h0l-.761-.456.647-.369.784.456-.638.369Zm-2.5-.223h0l-.766-.456.647-.374.788.456-.647.374Zm12.761-.2h0l-1.955-1.13.643-.374,1.982,1.13-.643.374Zm-2.242-.077h0l-.761-.456.643-.374.788.456-.643.374Zm-2.247-.082h0L71.97,117l.643-.369.788.456-.643.369Zm-4.717-.027h0l-.757-.456.643-.374.788.456-.647.374Zm2.47-.05h0l-.761-.456.643-.374.788.456-.643.374Zm-4.968-.178h0l-.761-.456.643-.374.788.456-.643.374Zm8.267-.351h0l-.761-.456.647-.374.784.456-.643.374Zm-2.247-.082h0l-.766-.456.647-.369.788.456-.647.369Zm-2.247-.077h0l-.761-.456.643-.374.788.456-.647.374Zm-2.734-.1h0l-.761-.456.647-.369.784.456-.643.369Zm8.267-.355h0l-1.955-1.13.647-.369,1.978,1.126-.643.374Zm-2.242-.077h0l-.761-.456.643-.374.788.456-.643.374Zm-2.247-.077h0l-.761-.456.643-.369.788.456-.643.369Zm-2.807-.406h0l-.328-.187.643-.369.355.191-.643.369Zm3.86-.205h0l-.761-.456.647-.374.784.456-.643.374Zm-2.807-.406h0l-.328-.187.643-.374.355.191-.643.369Zm3.86-.205h0l-.761-.456.643-.369.788.456-.643.369Zm-2.8-.4h0l-.333-.187.647-.369.351.191-.638.369Zm1.053-.611h0l-.328-.187.643-.374.355.191-.643.369Z" fill="#ba68c8"/>
              <path id="Path_766" data-name="Path 766" d="M55.19,130.341h0l-.761-.456,1.03-.6.788.456-1.048.6ZM54,129.652h0l-.761-.456.811-.456.788.456-.811.456Zm2.634-.146h0l-.761-.456.811-.456.788.456-.811.456Zm-3.828-.542h0l-.761-.456,1.313-.757.788.456-1.331.766Zm2.415,0h0l-.761-.456.643-.369.788.456-.643.369Zm2.634-.146h0l-.761-.456.811-.456.788.456-.811.456Zm-1.581-.456h0l-.761-.456.647-.374.784.456-.643.374Zm-4.658-.064h0l-.761-.456,1.035-.6.784.456-1.03.6Zm7.46-.178h0l-.761-.456,5.861-3.386.788.456L59.1,128.117Zm-4.557-.128h0l-.761-.456.643-.369.788.456-.643.369Zm2.8-.242h0l-.761-.456.643-.369.788.456-.643.369Zm-6.9-.146h0l-.761-.456.647-.369.788.456-.647.369Zm2.634-.141h0l-.761-.456.643-.369.788.456-.643.369Zm2.525-.082h0l-.761-.456.647-.374.784.456-.643.374Zm2.8-.242h0l-.761-.456.643-.374.788.456-.643.374ZM51.5,127h0l-.761-.456.643-.374.788.456-.643.374Zm2.634-.146h0l-.761-.456.643-.374.788.456-.643.374Zm2.525-.082h0l-.761-.456.643-.374.788.456-.643.369Zm-7.661,0h0l-.761-.456.811-.456.788.456-.811.456Zm10.459-.242h0l-.761-.456.647-.369.784.456-.643.369Zm-6.9-.141h0l-.761-.456.647-.374.784.456-.643.374Zm2.634-.146h0l-.761-.456.647-.369.784.456-.643.369Zm2.525-.077h0l-.761-.456.643-.369.788.456-.643.369Zm2.8-.242h0l-.761-.456.643-.374.788.456-.643.374Zm-9.853-.137h0l-.761-.456.643-.369.788.456-.643.369Zm2.93,0h0l-.761-.456.643-.369.788.456-.643.369Zm2.639-.146h0l-.761-.456.643-.374.788.456-.643.374Zm2.52-.082h0l-.761-.456.647-.374.788.456-.647.374Zm2.8-.242h0l-.761-.456.643-.374.788.456-.643.369Zm-9.835-.118h0l-.761-.456.643-.374.788.456-.643.374Zm2.93-.023h0l-.761-.456.643-.374.788.456-.643.374Zm2.634-.146h0l-.761-.456.643-.374.788.456-.643.369Zm2.525-.082h0l-.761-.456.643-.369.788.456-.643.369Zm2.8-.237h0l-.761-.456.647-.369.784.456-.643.369Zm-9.835-.123h0L52,124.129l.647-.374.788.456-.647.369Zm2.93-.023h0l-.761-.456.647-.369.784.456-.643.369Zm9.653-.064h0l-.761-.456.811-.456.784.456-.807.456Zm-7.014-.082h0l-.761-.456.647-.374.788.456Zm2.525-.082h0l-.761-.456.647-.374.784.456-.643.374Zm2.8-.242h0l-.761-.456.643-.374.788.456-.643.374Zm-9.839-.132h0l-.761-.456.643-.374.788.456-.643.369Zm2.93,0h0l-.761-.456.643-.374.788.456-.643.374Zm2.634-.146h0l-.761-.456.643-.374.788.456-.643.374Zm7.182,0h0l-.761-.456.811-.456.784.456-.807.456Zm-4.662-.064h0l-.761-.456.647-.369.788.456-.647.369Zm2.807-.246h0l-.761-.456.647-.369.784.456Zm-6.9-.141h0l-.761-.456.643-.369.788.456-.643.369Zm2.634-.146h0l-.761-.456.647-.369.784.456-.643.369Zm2.525-.077h0l-.761-.456.643-.374.788.456L63,123.14Zm-7.629,0h0l-.761-.456.643-.374.788.456-.643.374Zm12.451,0h0l-.761-.456.811-.456.784.456-.807.456Zm-2.023-.205h0L65,122.479l.647-.374.788.456-.647.374Zm-6.9-.141h0l-.761-.456.647-.374.788.456-.647.374Zm2.634-.146h0l-.766-.456.647-.374.788.456-.643.319Zm2.525-.082h0l-.761-.456.647-.374.784.456-.643.369Zm-7.629,0h0l-.761-.456.647-.369.784.456-.643.369Zm12.619-.109h0L68.247,122l1.035-.6.788.456-1.035.6Zm-2.188-.114h0l-.761-.456,2.033-1.171.784.456-2.028,1.171Zm-6.914-.205h0l-.761-.456.643-.374.788.456-.643.369Zm2.639-.146h0l-.761-.456.643-.369.788.456-.643.369Zm2.52-.077h0l-.761-.456.643-.369.788.456-.647.369Zm-7.629,0h0l-.766-.456.647-.374.788.456-.647.374Zm3.527-.365h0l-.761-.456.647-.369.784.456-.643.369Zm9.707-.1h0l-.761-.456.643-.374.788.456-.643.374ZM63.6,121.4h0l-.761-.456.647-.374.784.456-.643.374Zm2.525-.082h0l-.761-.456.588-.342a.128.128,0,0,0,.068-.1.137.137,0,0,0-.073-.114l-1-.579.757-.433,1.978,1.13-1.531.884Zm-7.629,0h0l-.761-.456.643-.374.788.456-.643.369Zm3.523-.365h0l-.761-.456.643-.374.788.456-.647.374Zm9.707-.1h0l-.761-.456.647-.374.784.456-.643.369Zm-7.073-.046h0l-.766-.456.647-.374.788.456-.647.369Zm-4.644-.365h0l-.761-.456.643-.369.788.456-.643.369Zm3.067-.1h0l-.761-.456.643-.369.788.456-.643.369Zm9.7-.1h0l-.761-.456.647-.369.788.456-.647.369Zm-2.247-.082h0l-.761-.456.643-.374.788.456-.643.369Zm-9.466-.378h0l-.761-.456.647-.374.784.456-.643.374Zm3.067-.1h0l-.761-.456,1.144-.661.788.456-1.144.661Zm9.926-.228h0l-.761-.456,1.7-.98.788.456-1.7.98Zm-6.959-.109h0l-.761-.456.647-.374.784.456-.643.374Zm-4.981-.173h0l-.761-.456.643-.369.788.456-.643.369Zm10.751-.406h0l-.761-.456.647-.374.784.456-.643.374Zm-4.717-.032h0l-.761-.456.643-.369.788.456-.643.369Zm-2.242-.077h0l-.761-.456.643-.374.788.456-.643.374Zm-2.734-.091h0l-.761-.456.643-.374.788.456-.643.374Zm12.993-.328h0l-.761-.456.647-.374.784.456-.643.374Zm-2.247-.082h0l-.761-.456.647-.369.784.456-.643.369Zm-4.712-.027h0l-.761-.456.643-.374.788.456-.643.374Zm2.466-.05h0l-.761-.456.643-.374.788.456-.643.374Zm-4.717-.05h0l-.761-.456.647-.369.784.456-.638.369Zm-2.5-.223h0l-.766-.456.647-.374.788.456-.647.374Zm12.761-.2h0l-1.955-1.13.643-.374,1.982,1.13-.643.374Zm-2.242-.077h0l-.761-.456.643-.374.788.456-.643.374Zm-2.247-.082h0L71.97,117l.643-.369.788.456-.643.369Zm-4.717-.027h0l-.757-.456.643-.374.788.456-.647.374Zm2.47-.05h0l-.761-.456.643-.374.788.456-.643.374Zm-4.968-.178h0l-.761-.456.643-.374.788.456-.643.374Zm8.267-.351h0l-.761-.456.647-.374.784.456-.643.374Zm-2.247-.082h0l-.766-.456.647-.369.788.456-.647.369Zm-2.247-.077h0l-.761-.456.643-.374.788.456-.647.374Zm-2.734-.1h0l-.761-.456.647-.369.784.456-.643.369Zm8.267-.355h0l-1.955-1.13.647-.369,1.978,1.126-.643.374Zm-2.242-.077h0l-.761-.456.643-.374.788.456-.643.374Zm-2.247-.077h0l-.761-.456.643-.369.788.456-.643.369Zm-2.807-.406h0l-.328-.187.643-.369.355.191-.643.369Zm3.86-.205h0l-.761-.456.647-.374.784.456-.643.374Zm-2.807-.406h0l-.328-.187.643-.374.355.191-.643.369Zm3.86-.205h0l-.761-.456.643-.369.788.456-.643.369Zm-2.8-.4h0l-.333-.187.647-.369.351.191-.638.369Zm1.053-.611h0l-.328-.187.643-.374.355.191-.643.369Z" opacity="0.5"/>
            </g>
          </g>
          <g id="freepik--PC--inject-42">
            <path id="freepik--shadow--inject-42-6" data-name="freepik--shadow--inject-42" d="M27.887,123.8l-7.962-4.6L59.743,96.215l7.962,4.594Z" opacity="0.15"/>
            <g id="freepik--Monitor--inject-42">
              <path id="Path_767" data-name="Path 767" d="M51.927,117.156l5.688-3.29a1.5,1.5,0,0,0,.88-1.221v-.793l-6.836-3.874a1.249,1.249,0,0,1-.565-.984V99.984l-9.935,5.747v7.014a1.249,1.249,0,0,0,.565.98l5.961,3.441A4.7,4.7,0,0,0,51.927,117.156Z" fill="#e6e6e6"/>
              <path id="Path_768" data-name="Path 768" d="M43.541,113.975v.788l-1.823-1.048a1.249,1.249,0,0,1-.565-.984v-7l1.891-1.094c.036.456.082.975.118,1.463l-1.326.766v5.469a1.249,1.249,0,0,0,.565.98Z" fill="#e0e0e0"/>
              <path id="Path_769" data-name="Path 769" d="M41.841,112.339a1.262,1.262,0,0,0,.565.98l5.277,3.044a4.671,4.671,0,0,0,4.243,0l5.688-3.286a1.29,1.29,0,0,0,0-2.447l-5.277-3.049a1.262,1.262,0,0,1-.565-.98v-5.469l-9.931,5.729Z" fill="#f5f5f5"/>
              <path id="Path_770" data-name="Path 770" d="M53.49,108.247h0l-1.153-.665a1.262,1.262,0,0,1-.565-.98v-5.469l-9.931,5.729v5.469a1.262,1.262,0,0,0,.565.98l1.135.656Z" fill="#ebebeb"/>
              <path id="Path_771" data-name="Path 771" d="M58.494,111.851v.793a1.5,1.5,0,0,1-.88,1.226l-5.688,3.286a4.288,4.288,0,0,1-2.023.5v-.788a4.238,4.238,0,0,0,2.023-.5l5.688-3.29A1.5,1.5,0,0,0,58.494,111.851Z" fill="#ebebeb"/>
              <path id="Path_772" data-name="Path 772" d="M25.895,119.9a1.518,1.518,0,0,0,1.367,0l38.4-22.172a1.563,1.563,0,0,0,.706-1.226V62.864a1.326,1.326,0,0,0-2.033-1.176l-38.4,22.167a1.563,1.563,0,0,0-.706,1.226V118.7A1.513,1.513,0,0,0,25.895,119.9Z" fill="#455a64"/>
              <path id="Path_773" data-name="Path 773" d="M27.267,119.859l38.4-22.176a1.55,1.55,0,0,0,.706-1.221v-33.6c0-.456-.314-.638-.706-.41l-38.4,22.172a1.577,1.577,0,0,0-.706,1.226v33.615C26.56,119.918,26.888,120.1,27.267,119.859Z" fill="#ba68c8"/>
              <path id="Path_774" data-name="Path 774" d="M27.267,119.859l38.4-22.176a1.55,1.55,0,0,0,.706-1.221v-33.6c0-.456-.314-.638-.706-.41l-38.4,22.172a1.577,1.577,0,0,0-.706,1.226v33.615C26.56,119.918,26.888,120.1,27.267,119.859Z" fill="#37474f"/>
              <path id="Path_775" data-name="Path 775" d="M27.162,119.927a1.322,1.322,0,0,1-1.928-1.226v-3.783l1.326.77v3.778C26.56,119.859,26.82,120.064,27.162,119.927Z" fill="#e0e0e0"/>
              <path id="Path_776" data-name="Path 776" d="M26.56,115.684v3.783c0,.456.319.633.706.41L65.672,97.7a1.55,1.55,0,0,0,.706-1.221V92.7Z" fill="#fff"/>
              <path id="Path_777" data-name="Path 777" d="M27.887,112.9v-26.6a.948.948,0,0,1,.424-.738L64.628,64.592c.232-.137.424-.027.424.246v26.6a.948.948,0,0,1-.424.738L28.31,113.141C28.078,113.278,27.887,113.169,27.887,112.9Z" fill="#ba68c8"/>
              <path id="Path_778" data-name="Path 778" d="M27.887,112.9v-26.6a.948.948,0,0,1,.424-.738L64.628,64.592c.232-.137.424-.027.424.246v26.6a.948.948,0,0,1-.424.738L28.31,113.141C28.078,113.278,27.887,113.169,27.887,112.9Z" fill="#fff" opacity="0.5"/>
              <path id="Path_779" data-name="Path 779" d="M30.033,86.07,62.368,67.385c.237-.137.424-.027.424.246V91.193a.911.911,0,0,1-.424.734l-32.33,18.685c-.237.137-.428.023-.428-.246V86.809A.948.948,0,0,1,30.033,86.07Z" fill="#455a64"/>
              <path id="Path_780" data-name="Path 780" d="M62.791,67.645c0-.269-.187-.378-.424-.242L30.033,86.089a.948.948,0,0,0-.424.738V88.65L62.791,69.509Z" fill="#37474f"/>
              <path id="Path_781" data-name="Path 781" d="M46.485,105.731a1.454,1.454,0,0,0-.665,1.148c0,.424.3.592.665.383a1.477,1.477,0,0,0,.661-1.148C47.132,105.685,46.836,105.512,46.485,105.731Z" fill="#455a64"/>
              <path id="Path_782" data-name="Path 782" d="M26.77,85.15a1.522,1.522,0,0,0-.21.7v29.837l-1.326-.77V85.086a1.454,1.454,0,0,1,.21-.7Z" fill="#263238"/>
              <path id="Path_783" data-name="Path 783" d="M34.887,88.345v19.446L57.769,94.574V75.133c0-.3-.21-.419-.456-.269L35.37,87.533A1.039,1.039,0,0,0,34.887,88.345Z" fill="#fafafa"/>
              <path id="Path_784" data-name="Path 784" d="M38.619,88.832a1.568,1.568,0,0,0,0,.16c0,.068,0,.137,0,.21v.21a1.517,1.517,0,0,0,0,.16.729.729,0,0,0,.023.178.305.305,0,0,0,.064.128.15.15,0,0,0,.109.046.287.287,0,0,0,.16-.05.583.583,0,0,0,.164-.128.756.756,0,0,0,.1-.146.579.579,0,0,0,.059-.146.984.984,0,0,0,.036-.132.429.429,0,0,1,.032-.118.141.141,0,0,1,.064-.064l.374-.219a.027.027,0,0,1,.041,0,.077.077,0,0,1,0,.059,1.659,1.659,0,0,1-.068.456,2.1,2.1,0,0,1-.456.843,1.367,1.367,0,0,1-.351.287.756.756,0,0,1-.365.118.456.456,0,0,1-.273-.1.588.588,0,0,1-.178-.278,1.417,1.417,0,0,1-.068-.419q0-.171,0-.383v-.4a2.365,2.365,0,0,1,.068-.5,2.539,2.539,0,0,1,.173-.483,2.128,2.128,0,0,1,.278-.415,1.445,1.445,0,0,1,.365-.305.866.866,0,0,1,.351-.118.52.52,0,0,1,.283.068.551.551,0,0,1,.187.237.952.952,0,0,1,.068.378.15.15,0,0,1,0,.077.109.109,0,0,1-.041.055l-.374.214c-.032.023-.055.023-.064,0a.178.178,0,0,1-.032-.082.41.41,0,0,0-.036-.1.169.169,0,0,0-.059-.077.173.173,0,0,0-.1-.027.456.456,0,0,0-.164.059.519.519,0,0,0-.16.137.62.62,0,0,0-.109.173.984.984,0,0,0-.064.2A1.135,1.135,0,0,0,38.619,88.832Z" fill="#e0e0e0"/>
              <path id="Path_785" data-name="Path 785" d="M40.237,87.875a2.4,2.4,0,0,1,.242-.98,2.142,2.142,0,0,1,.273-.41,1.426,1.426,0,0,1,.374-.31.725.725,0,0,1,.369-.118.4.4,0,0,1,.273.1.592.592,0,0,1,.173.273,1.468,1.468,0,0,1,.073.424v.779a2.42,2.42,0,0,1-.073.506,2.142,2.142,0,0,1-.173.479,1.923,1.923,0,0,1-.273.415,1.568,1.568,0,0,1-.369.305.766.766,0,0,1-.374.123.415.415,0,0,1-.273-.1.665.665,0,0,1-.173-.283,1.417,1.417,0,0,1-.068-.419v-.383C40.237,88.139,40.232,88,40.237,87.875Zm1.249.036v-.734a1.017,1.017,0,0,0-.027-.187.324.324,0,0,0-.068-.118.15.15,0,0,0-.109-.046.292.292,0,0,0-.155.05.592.592,0,0,0-.155.128.62.62,0,0,0-.109.173.911.911,0,0,0-.068.2,1.208,1.208,0,0,0-.032.219c0,.055,0,.109,0,.173v.565a.456.456,0,0,0,.1.305c.059.064.146.064.264,0a.611.611,0,0,0,.26-.3,1.18,1.18,0,0,0,.087-.428Z" fill="#e0e0e0"/>
              <path id="Path_786" data-name="Path 786" d="M43.787,87.752h-.082a.132.132,0,0,1-.036-.036l-.652-1.126v1.486a.246.246,0,0,1,0,.1.109.109,0,0,1-.055.064l-.374.219a.046.046,0,0,1-.055,0,.1.1,0,0,1,0-.073v-2.83a.287.287,0,0,1,0-.1.155.155,0,0,1,.055-.064l.3-.173a.068.068,0,0,1,.077,0,.114.114,0,0,1,.041.041l.652,1.121V84.895a.246.246,0,0,1,.023-.1.141.141,0,0,1,.055-.068l.374-.214a.036.036,0,0,1,.055,0,.1.1,0,0,1,.023.068v2.835a.246.246,0,0,1-.023.1.223.223,0,0,1-.055.068Z" fill="#e0e0e0"/>
              <path id="Path_787" data-name="Path 787" d="M46.166,83.309a.036.036,0,0,1,.05,0,.077.077,0,0,1,0,.068v.456a.187.187,0,0,1,0,.1.141.141,0,0,1-.05.068l-.5.292v2.247a.287.287,0,0,1,0,.1.264.264,0,0,1-.055.064l-.374.214h-.055a.1.1,0,0,1,0-.068V84.594l-.5.292a.046.046,0,0,1-.055,0,.1.1,0,0,1,0-.068v-.456a.269.269,0,0,1,0-.1.128.128,0,0,1,.055-.064Z" fill="#e0e0e0"/>
              <path id="Path_788" data-name="Path 788" d="M47.488,82.543a1.066,1.066,0,0,1,.337-.132.346.346,0,0,1,.251.041.374.374,0,0,1,.16.219,1.176,1.176,0,0,1,.059.415,1.887,1.887,0,0,1-.091.6,1.522,1.522,0,0,1-.251.456l.355.843a.132.132,0,0,1,0,.041.214.214,0,0,1,0,.077.114.114,0,0,1-.046.055l-.387.223c-.041.023-.064.027-.082,0a.16.16,0,0,1-.036-.059l-.319-.752-.26.15v.962a.246.246,0,0,1,0,.1.16.16,0,0,1-.055.064l-.374.219a.046.046,0,0,1-.055,0,.1.1,0,0,1,0-.073v-2.83a.287.287,0,0,1,0-.1.15.15,0,0,1,.055-.064Zm-.319,1.518.319-.187a.606.606,0,0,0,.2-.187.529.529,0,0,0,.077-.3c0-.123-.027-.2-.077-.21a.251.251,0,0,0-.2.041l-.319.187Z" fill="#e0e0e0"/>
              <path id="Path_789" data-name="Path 789" d="M49.8,81.208c.036-.023.068-.023.087,0a.191.191,0,0,1,.041.073l.62,2.4a.2.2,0,0,1,0,.059.264.264,0,0,1,0,.082.123.123,0,0,1-.046.05l-.36.21c-.036.023-.064.023-.077,0a.087.087,0,0,1-.032-.055l-.082-.319-.757.456-.077.41a.314.314,0,0,1-.032.091.2.2,0,0,1-.082.082l-.36.21a.027.027,0,0,1-.041,0,.068.068,0,0,1,0-.055.625.625,0,0,1,0-.073l.62-3.122a.592.592,0,0,1,.046-.123.178.178,0,0,1,.087-.1Zm-.456,2.183.456-.264-.232-.911Z" fill="#e0e0e0"/>
              <path id="Path_790" data-name="Path 790" d="M51.348,81.486a1.517,1.517,0,0,0,0,.16v.419a1.426,1.426,0,0,0,0,.155.675.675,0,0,0,0,.178.305.305,0,0,0,.064.128.155.155,0,0,0,.109.05.3.3,0,0,0,.16-.055.506.506,0,0,0,.16-.128.6.6,0,0,0,.1-.141A.756.756,0,0,0,52,82.106a1.029,1.029,0,0,0,.036-.137.7.7,0,0,1,.027-.114.164.164,0,0,1,.068-.068l.374-.214a.027.027,0,0,1,.041,0s0,.027,0,.055a1.632,1.632,0,0,1-.068.456,2.188,2.188,0,0,1-.187.456,2.046,2.046,0,0,1-.283.392,1.367,1.367,0,0,1-.351.287.711.711,0,0,1-.365.118.4.4,0,0,1-.273-.1.611.611,0,0,1-.178-.278,1.467,1.467,0,0,1-.068-.419v-.784a2.406,2.406,0,0,1,.242-.975,2,2,0,0,1,.278-.415,1.463,1.463,0,0,1,.365-.31.829.829,0,0,1,.351-.114.483.483,0,0,1,.283.068.51.51,0,0,1,.187.232.957.957,0,0,1,.068.383.173.173,0,0,1,0,.077.109.109,0,0,1-.041.055l-.374.214c-.032,0-.055.023-.068,0a.274.274,0,0,1-.027-.082A.661.661,0,0,0,52,80.8a.155.155,0,0,0-.059-.073.178.178,0,0,0-.1-.027.365.365,0,0,0-.16.055.679.679,0,0,0-.16.137.693.693,0,0,0-.109.173,1.025,1.025,0,0,0-.064.2,1.052,1.052,0,0,0,0,.223Z" fill="#e0e0e0"/>
              <path id="Path_791" data-name="Path 791" d="M54.492,78.5h.055a.077.077,0,0,1,0,.068v.456a.187.187,0,0,1,0,.1.141.141,0,0,1-.055.068l-.5.287v2.251a.187.187,0,0,1,0,.1.169.169,0,0,1-.05.068l-.374.214a.041.041,0,0,1-.055,0,.078.078,0,0,1-.023-.068V79.786l-.5.292a.046.046,0,0,1-.055,0,.114.114,0,0,1,0-.073v-.456a.246.246,0,0,1,0-.1.141.141,0,0,1,.055-.068Z" fill="#e0e0e0"/>
              <path id="Path_792" data-name="Path 792" d="M37.079,93.066,55.6,82.365a.208.208,0,0,1,.337.191h0a.734.734,0,0,1-.337.583L37.083,93.8c-.187.1-.342.027-.342-.173a.738.738,0,0,1,.337-.561Z" fill="#e0e0e0"/>
              <path id="Path_793" data-name="Path 793" d="M37.079,95.117,55.6,84.412c.187-.109.337-.023.337.2h0a.747.747,0,0,1-.337.615L37.083,95.846c-.187.1-.342.027-.342-.173a.725.725,0,0,1,.337-.556Z" fill="#e0e0e0"/>
              <path id="Path_794" data-name="Path 794" d="M37.079,97.163,55.6,86.458a.21.21,0,0,1,.337.2h0a.747.747,0,0,1-.337.583L37.083,97.892c-.187.109-.342.032-.342-.169a.725.725,0,0,1,.337-.561Z" fill="#e0e0e0"/>
              <path id="Path_795" data-name="Path 795" d="M37.079,100.2,55.6,89.5a.208.208,0,0,1,.337.191h0a.729.729,0,0,1-.337.579L37.083,100.937c-.187.1-.342.027-.342-.173a.738.738,0,0,1,.337-.561Z" fill="#e0e0e0"/>
              <path id="Path_796" data-name="Path 796" d="M37.079,102.254,55.6,91.548a.21.21,0,0,1,.337.2h0a.747.747,0,0,1-.337.583L37.083,103c-.187.109-.342.032-.342-.169a.725.725,0,0,1,.337-.574Z" fill="#e0e0e0"/>
              <path id="Path_797" data-name="Path 797" d="M37.079,104.3,55.6,93.595a.21.21,0,0,1,.337.2h0a.734.734,0,0,1-.337.583L37.083,105.029c-.187.109-.342.032-.342-.169a.738.738,0,0,1,.337-.561Z" fill="#e0e0e0"/>
            </g>
          </g>
        </g>
      </g>
      <g id="freepik--Chair--inject-42">
        <g id="freepik--chair--inject-42-2" data-name="freepik--chair--inject-42">
          <path id="Path_798" data-name="Path 798" d="M179,180.54a.643.643,0,0,0,.643-.643V138.512a.643.643,0,0,0-1.285,0V179.9a.643.643,0,0,0,.643.643Z" fill="#455a64"/>
          <path id="Path_799" data-name="Path 799" d="M153.4,165.478a.647.647,0,0,0,.6-.406l12.688-32.12a.642.642,0,1,0-1.194-.474L152.8,164.6a.643.643,0,0,0,.36.834.624.624,0,0,0,.237.046Z" fill="#455a64"/>
          <path id="Path_800" data-name="Path 800" d="M154.923,161.622a.624.624,0,0,0,.456-.205L179,136.429l23.58,24.9a.643.643,0,0,0,.934-.884l-24.04-25.394a.62.62,0,0,0-.456-.205h0a.638.638,0,0,0-.456.205l-24.081,25.48a.647.647,0,0,0,.027.911.633.633,0,0,0,.419.178Z" fill="#455a64"/>
          <path id="Path_801" data-name="Path 801" d="M204.626,165.478a.624.624,0,0,0,.237-.046.643.643,0,0,0,.365-.834l-12.692-32.12a.644.644,0,1,0-1.2.474l12.692,32.12a.647.647,0,0,0,.6.406Z" fill="#455a64"/>
          <path id="Path_802" data-name="Path 802" d="M154.271,160.629l-1.677,4.425a.515.515,0,0,0,0,.114.246.246,0,0,0,0,.082.51.51,0,0,0,.251.278,1.121,1.121,0,0,0,1.021,0,.456.456,0,0,0,.2-.21h0v-.064l1.559-4.147Z" fill="#ba68c8"/>
          <path id="Path_803" data-name="Path 803" d="M203.714,160.629l1.677,4.425a.351.351,0,0,1,0,.114v.082a.542.542,0,0,1-.255.278,1.121,1.121,0,0,1-1.021,0,.428.428,0,0,1-.2-.21h0v-.064l-1.554-4.147Z" fill="#ba68c8"/>
          <path id="Path_804" data-name="Path 804" d="M178.261,176.694v3.646a.365.365,0,0,0,.219.3,1.148,1.148,0,0,0,1.048,0,.365.365,0,0,0,.219-.3v-3.646A1.586,1.586,0,0,0,178.261,176.694Z" fill="#ba68c8"/>
          <path id="Path_805" data-name="Path 805" d="M150.224,132.515c0-1.153,1.007-2.379,3.145-3.764,3.947-2.561,15.431-8.973,20.964-12.031a.064.064,0,0,1,.046-.046c4.247-2.579,5.542-13.581,8.481-22.91,1-3.19,2.229-4.981,3.687-5.829.342-.2,1.618-.911,1.9-1.071,2.885-1.727,6.672.351,11.393,2.93,4.343,2.379,7.748,5.423,8.422,13.5a118.009,118.009,0,0,1-.98,21.42h0c-1.449,11.9-3.222,11.922-5.8,13.914-4.434,3.427-14.424,8.244-18.635,9.9-7.638,3-13.877-1.627-18.526-3.924a108.923,108.923,0,0,1-12.3-7.292c-1.162-.848-1.768-1.7-1.755-2.6C150.229,134.351,150.22,132.888,150.224,132.515Z" fill="#ba68c8"/>
          <path id="Path_806" data-name="Path 806" d="M150.224,132.515c0-1.153,1.007-2.379,3.145-3.764,3.947-2.561,15.431-8.973,20.964-12.031a.064.064,0,0,1,.046-.046c4.247-2.579,5.542-13.581,8.481-22.91,1-3.19,2.229-4.981,3.687-5.829.342-.2,1.618-.911,1.9-1.071,2.885-1.727,6.672.351,11.393,2.93,4.343,2.379,7.748,5.423,8.422,13.5a118.009,118.009,0,0,1-.98,21.42h0c-1.449,11.9-3.222,11.922-5.8,13.914-4.434,3.427-14.424,8.244-18.635,9.9-7.638,3-13.877-1.627-18.526-3.924a108.923,108.923,0,0,1-12.3-7.292c-1.162-.848-1.768-1.7-1.755-2.6C150.229,134.351,150.22,132.888,150.224,132.515Z" opacity="0.2"/>
          <path id="Path_807" data-name="Path 807" d="M164.307,142.4a108.245,108.245,0,0,1-12.3-7.292c-2.648-1.923-2.4-3.887,1.367-6.348,5.268-3.418,23.985-13.709,23.985-13.709s27.153,16.028,25.977,18.986-15.212,10.213-20.508,12.3C175.194,149.327,168.955,144.7,164.307,142.4Z" fill="#ba68c8"/>
          <g id="Group_907" data-name="Group 907" opacity="0.5">
            <path id="Path_808" data-name="Path 808" d="M164.307,142.4a108.245,108.245,0,0,1-12.3-7.292c-2.648-1.923-2.4-3.887,1.367-6.348,5.268-3.418,23.985-13.709,23.985-13.709s27.153,16.028,25.977,18.986-15.212,10.213-20.508,12.3C175.194,149.327,168.955,144.7,164.307,142.4Z" fill="#fff"/>
          </g>
          <path id="Path_809" data-name="Path 809" d="M186.7,87.839c2.857-1.5,6.572.542,11.166,3.058,2.944,1.613,5.469,3.523,6.977,7.1l1.937-1.121c-1.522-3.559-4.024-5.469-6.959-7.082-4.717-2.584-8.5-4.658-11.393-2.93C188.183,87.009,187.18,87.57,186.7,87.839Z" fill="#ba68c8"/>
          <path id="Path_810" data-name="Path 810" d="M186.7,87.839c2.857-1.5,6.572.542,11.166,3.058,2.944,1.613,5.469,3.523,6.977,7.1l1.937-1.121c-1.522-3.559-4.024-5.469-6.959-7.082-4.717-2.584-8.5-4.658-11.393-2.93C188.183,87.009,187.18,87.57,186.7,87.839Z" fill="#fff" opacity="0.5"/>
          <path id="Path_811" data-name="Path 811" d="M197.872,90.9c-7.059-3.865-12.041-6.608-15.039,2.867-2.94,9.329-4.234,20.33-8.481,22.91,0,0,2.771.911,12.651,5.761,4.056,1.992,6.718,4,10.518,6.38,5.587,3.514,5.163,6.13,5.163,6.13,2.775-2.3,4.275-22.477,3.6-30.557S202.215,93.276,197.872,90.9Z" fill="#ba68c8"/>
        </g>
      </g>
      <g id="freepik--speech-bubble--inject-42">
        <g id="freepik--speech-bubble--inject-42-2" data-name="freepik--speech-bubble--inject-42">
          <g id="freepik--speech-bubble--inject-42-3" data-name="freepik--speech-bubble--inject-42">
            <path id="Path_812" data-name="Path 812" d="M103.7,38.482a.456.456,0,0,0-.237-.064H99.123l-1.791,1.035V45.66l1.791-1.035,1.55-1.786v4.384l1.791-1.035,4.694-5.059a.456.456,0,0,0-.118-.72Z" fill="#ba68c8"/>
            <path id="Path_813" data-name="Path 813" d="M103.7,38.482a.456.456,0,0,0-.237-.064H99.123l-1.791,1.035V45.66l1.791-1.035,1.55-1.786v4.384l1.791-1.035,4.694-5.059a.456.456,0,0,0-.118-.72Z" fill="#fff" opacity="0.4"/>
            <path id="Path_814" data-name="Path 814" d="M100.672,47.223l1.791-1.035,4.694-5.059a.456.456,0,0,0-.355-.784h-4.339l-1.791,1.035Z" fill="#ba68c8"/>
            <path id="Path_815" data-name="Path 815" d="M102.477,35.224a3.8,3.8,0,0,0-1.723-2.981h0a3.8,3.8,0,0,0-3.445,0l-13.08,7.483a3.819,3.819,0,0,0-1.718,2.985V56.839a3.819,3.819,0,0,0,1.718,2.985h0a3.8,3.8,0,0,0,3.445,0l13.216-7.6a2.672,2.672,0,0,0,1.563-2.867Z" fill="#ba68c8"/>
            <path id="Path_816" data-name="Path 816" d="M82.516,56.83a3.819,3.819,0,0,0,1.718,2.985h0a3.846,3.846,0,0,0,3.149.146c-.811.305-1.426-.16-1.426-1.139V44.694a3.527,3.527,0,0,1,.5-1.7l-3.441-1.982a3.546,3.546,0,0,0-.5,1.7Z" opacity="0.15"/>
            <path id="Path_817" data-name="Path 817" d="M102.422,34.736c-.2-.729-.87-.966-1.663-.506L87.675,41.718A3.409,3.409,0,0,0,86.462,43l-3.441-1.987a3.491,3.491,0,0,1,1.217-1.285l13.071-7.488a3.824,3.824,0,0,1,3.445,0h0A3.792,3.792,0,0,1,102.422,34.736Z" fill="#fff" opacity="0.4"/>
          </g>
          <g id="freepik----inject-42">
            <path id="Path_818" data-name="Path 818" d="M94.666,41.153a1.745,1.745,0,0,1,.816,0,1.522,1.522,0,0,1,.629.351,1.7,1.7,0,0,1,.41.588,2.028,2.028,0,0,1,.164.743.624.624,0,0,1-.068.278.383.383,0,0,1-.146.182l-1.313.775a.3.3,0,0,1-.406,0l-.091-.1a.574.574,0,0,0-.187-.118.629.629,0,0,0-.3-.027,1.176,1.176,0,0,0-.456.169,3.289,3.289,0,0,0-.369.251,2.187,2.187,0,0,0-.31.305,1.5,1.5,0,0,0-.223.369,1.126,1.126,0,0,0-.082.456.359.359,0,0,0,.415.433,2.465,2.465,0,0,0,.6-.091c.251-.059.556-.141.911-.237a3.131,3.131,0,0,1,.966-.128,1.117,1.117,0,0,1,.684.264,1.367,1.367,0,0,1,.415.688,4.216,4.216,0,0,1,.137,1.18,5.122,5.122,0,0,1-.164,1.284,5.87,5.87,0,0,1-.456,1.222,6.321,6.321,0,0,1-.67,1.048,6.2,6.2,0,0,1-.911.911v1.1a.784.784,0,0,1-.082.342.529.529,0,0,1-.191.232l-1.317.757a.137.137,0,0,1-.187,0,.337.337,0,0,1-.082-.251V53a1.882,1.882,0,0,1-.87,0,1.513,1.513,0,0,1-.661-.333,1.6,1.6,0,0,1-.428-.629,2.429,2.429,0,0,1-.16-.857.67.67,0,0,1,.064-.278.456.456,0,0,1,.146-.187l1.317-.757a.419.419,0,0,1,.219-.077.374.374,0,0,1,.164.073l.118.132a.8.8,0,0,0,.214.16.706.706,0,0,0,.342.059,1.212,1.212,0,0,0,.51-.187,3.755,3.755,0,0,0,.889-.693,1.208,1.208,0,0,0,.355-.843.346.346,0,0,0-.132-.314.684.684,0,0,0-.392-.059,3.842,3.842,0,0,0-.665.132l-.962.246a1.453,1.453,0,0,1-1.508-.264,2.789,2.789,0,0,1-.456-1.85,5.109,5.109,0,0,1,.132-1.121,6.166,6.166,0,0,1,.374-1.139,6.253,6.253,0,0,1,.606-1.071,5.951,5.951,0,0,1,.807-.948v-1.13a.784.784,0,0,1,.082-.342.5.5,0,0,1,.187-.232l1.317-.761a.15.15,0,0,1,.191,0,.337.337,0,0,1,.082.251Z" fill="#fafafa"/>
          </g>
        </g>
      </g>
      <g id="freepik--Briefcase--inject-42">
        <g id="freepik--briefcase--inject-42-2" data-name="freepik--briefcase--inject-42">
          <path id="Path_819" data-name="Path 819" d="M58.749,164.9v23.735c0,1.153.816,1.823,1.823,2.4l2.5,1.445a2.406,2.406,0,0,0,1.951.383,5.3,5.3,0,0,0,1.331-.547.123.123,0,0,0,.055-.027l.132-.077,25.521-14.729a6.025,6.025,0,0,0,2.99-5.218V150.657a1.727,1.727,0,0,0-.779-1.344l-4.261-2.456a1.682,1.682,0,0,0-1.545,0L59.524,163.564a1.572,1.572,0,0,0-.551.579,1.613,1.613,0,0,0-.223.761Z" fill="#ba68c8"/>
          <path id="Path_820" data-name="Path 820" d="M58.749,164.9v23.735c0,1.153.816,1.823,1.823,2.4l2.5,1.445a2.406,2.406,0,0,0,1.951.383,5.3,5.3,0,0,0,1.331-.547h0c-.993.456-1.777-.055-1.777-1.23V168.718a2.434,2.434,0,0,1,.342-1.158l-5.925-3.418a1.613,1.613,0,0,0-.242.761Z" opacity="0.3"/>
          <path id="Path_821" data-name="Path 821" d="M64.56,168.718a2.6,2.6,0,0,1,1.171-2.028l27.344-15.8c1.08-.624,1.964-.109,1.964,1.139v20.235a6.025,6.025,0,0,1-2.981,5.218L66.538,192.216c-1.08.624-1.964.114-1.964-1.135Z" opacity="0.2"/>
          <path id="Path_822" data-name="Path 822" d="M91.393,147.659,62.4,164.562a2.734,2.734,0,0,0-1.367,2.342v24.427l.456.255V166.9a2.279,2.279,0,0,1,1.13-1.96l29.208-17.031Z" fill="#ba68c8"/>
          <path id="Path_823" data-name="Path 823" d="M61.42,165.551a2.735,2.735,0,0,0-.365,1.367v24.427l.456.255V166.9a2.279,2.279,0,0,1,.305-1.13Z" opacity="0.4"/>
          <path id="Path_824" data-name="Path 824" d="M61.8,165.77a2.215,2.215,0,0,1,.825-.829l29.208-17.031-.456-.255-28.989,16.9a2.707,2.707,0,0,0-.984.993" opacity="0.3"/>
          <path id="Path_825" data-name="Path 825" d="M80.665,150.744v3.678l1.436.829v-4.858c0-.251-.173-.351-.392-.228Z" fill="#263238"/>
          <path id="Path_826" data-name="Path 826" d="M70.562,154.376v5.952l1.367.793.911-.533v-4.881a.884.884,0,0,1,.392-.684l7-4.042,1.454-.839c.219-.123.392-.023.392.228v4.881l.911-.533v-5.947a.415.415,0,0,0,0-.077.875.875,0,0,0-.392-.606l-.583-.342a.912.912,0,0,0-.788,0l-10.3,5.952A.857.857,0,0,0,70.562,154.376Z" fill="#455a64"/>
          <path id="Path_827" data-name="Path 827" d="M71.933,155.174v5.947l.911-.533v-4.881a.884.884,0,0,1,.392-.684l7-4.042,1.454-.839c.219-.123.392-.023.392.228v4.881l.911-.533v-5.947a.415.415,0,0,0,0-.077c-.036-.2-.2-.264-.392-.15l-10.281,5.952A.884.884,0,0,0,71.933,155.174Z" fill="#37474f"/>
        </g>
      </g>
      <g id="freepik--Character--inject-42">
        <g id="freepik--character--inject-42-2" data-name="freepik--character--inject-42">
          <path id="Path_828" data-name="Path 828" d="M140.791,53.777c.456-.26.825-3.386.456-5.647s.656-2.734,1.117-2.033a3.742,3.742,0,0,1,.547,1.335,5.925,5.925,0,0,1,2.734,1.686,6.485,6.485,0,0,1,1.923,6.18c-.114.638-.761,1.49-1.08,2.415-.5,1.445,6.221,12.893,6.221,19.246,0,6.13-3.9,5.369-7.748,3.354-4.425-2.315-11.311-9.643-11.311-9.643l-3.309-11.927c4.5.328,5.013,1.03,7.775,4.466,3.094,3.883,6.3,8.048,6.3,8.048-1.162-4.557-2.329-11-4.211-12.587" fill="#ffa8a7"/>
          <path id="Path_829" data-name="Path 829" d="M129.475,58.6c2.6.027,4.052.21,5.656,1.176s2.939,3.19,3.96,4.352,5.109,6.677,5.109,6.677l-1.267-5.715,5.637-1.559s1.7,3.792,2.8,6.54a16.194,16.194,0,0,1,1.34,8.618c-.483,2.93-2.046,3.687-4.557,3.09s-5.214-2.028-11.434-7.675-6.836-6.312-6.836-6.312Z" fill="#455a64"/>
          <path id="Path_830" data-name="Path 830" d="M142.258,62.7l.852,3.19a11.066,11.066,0,0,0,3.19-.492c2.019-.551,2.516-1.34,2.516-1.34l-1.244-2.876A9.688,9.688,0,0,1,142.258,62.7Z" fill="#37474f"/>
          <path id="Path_831" data-name="Path 831" d="M144.2,70.808a13.145,13.145,0,0,0,3.441,6.745s-3.951-1.969-4.393-8.021Z" fill="#37474f"/>
          <path id="Path_832" data-name="Path 832" d="M147.809,47.624,136.949,41.7a.647.647,0,0,0-.674-.027c-.16.1-.8.456-.98.556a.675.675,0,0,0-.333.556l-.711,6.435a1.591,1.591,0,0,0,.757,1.458l10.86,5.925a.688.688,0,0,0,.638.05c.178-.091.875-.488,1.053-.6a.688.688,0,0,0,.3-.533c.178-1.618.533-4.831.711-6.453a1.577,1.577,0,0,0-.757-1.44Z" fill="#ba68c8"/>
          <path id="Path_833" data-name="Path 833" d="M146.8,48.2l-10.86-5.925a.643.643,0,0,0-.7,0l.055-.036c.178-.091.816-.456.98-.551a.656.656,0,0,1,.674.027l10.86,5.925a1.394,1.394,0,0,1,.387.346l-.993.551a.457.457,0,0,1,.036.05,1.4,1.4,0,0,0-.442-.387Z" opacity="0.35"/>
          <path id="Path_834" data-name="Path 834" d="M135.007,50.7l10.86,5.925a.615.615,0,0,0,.975-.51c.178-1.618.533-4.831.711-6.449a1.577,1.577,0,0,0-.757-1.454l-10.86-5.925a.615.615,0,0,0-.975.51l-.711,6.426a1.591,1.591,0,0,0,.757,1.477Z" opacity="0.45"/>
          <path id="Path_835" data-name="Path 835" d="M146.606,52.164a.725.725,0,0,1,.314.643.26.26,0,0,1-.41.214.7.7,0,0,1-.314-.638.26.26,0,0,1,.41-.219Z" opacity="0.35"/>
          <path id="Path_836" data-name="Path 836" d="M135.809,50.186a.8.8,0,0,1-.351-.674l.761-6.426,9.721,5.328a.816.816,0,0,1,.351.674L145.53,55.5Z" fill="#ba68c8"/>
          <path id="Path_837" data-name="Path 837" d="M135.809,50.186a.8.8,0,0,1-.351-.674l.761-6.426,9.721,5.328a.816.816,0,0,1,.351.674L145.53,55.5Z" fill="#fff" opacity="0.7"/>
          <path id="Path_838" data-name="Path 838" d="M145.558,55.24l-.032.269-9.716-5.323a.829.829,0,0,1-.351-.674l.761-6.426.237.132-.729,6.157a.811.811,0,0,0,.351.679Z" fill="#ba68c8"/>
          <path id="Path_839" data-name="Path 839" d="M148.57,49.078c-.178,1.618-.538,4.835-.716,6.453a.684.684,0,0,1-.3.533c-.178.114-.875.51-1.053.6a.073.073,0,0,1-.041,0,.638.638,0,0,0,.378-.574c.178-1.618.533-4.831.711-6.449a1.591,1.591,0,0,0-.36-1.121l1.007-.57a1.581,1.581,0,0,1,.369,1.126Z" opacity="0.55"/>
          <path id="Path_840" data-name="Path 840" d="M140.608,53.777c-.351-.324-.433-1.331-1.007-2.233-.665-1.039-2.32-.857-1.85,0a9.535,9.535,0,0,1,.884,3.682c.273,2.1.743,2.279,1.586,3.464l.57-4.79Z" fill="#ffa8a7"/>
          <path id="Path_841" data-name="Path 841" d="M145.275,42.488a1.117,1.117,0,0,1-.383-.911l.064-1.436c0-.355.214-.529.456-.387a1.121,1.121,0,0,1,.378.911l-.064,1.436C145.694,42.461,145.5,42.634,145.275,42.488Z" fill="#e0e0e0"/>
          <path id="Path_842" data-name="Path 842" d="M142.19,41.837a.934.934,0,0,1-.337-.551l-.4-1.536c-.1-.383,0-.734.191-.788s.456.214.547.592l.4,1.536c.1.383,0,.738-.191.788a.273.273,0,0,1-.21-.041Z" fill="#e0e0e0"/>
          <path id="Path_843" data-name="Path 843" d="M150.626,61.429a.729.729,0,0,1-.2-.219l-.752-1.221a1.1,1.1,0,0,1-.114-.98c.128-.237.383-.182.57.123l.757,1.221a1.112,1.112,0,0,1,.109.98.237.237,0,0,1-.369.1Z" fill="#e0e0e0"/>
          <path id="Path_844" data-name="Path 844" d="M151.81,56.511l-.911-.579a1.112,1.112,0,0,1-.378-.911c0-.36.21-.533.456-.387l.911.579a1.117,1.117,0,0,1,.383.911C152.216,56.511,152.034,56.662,151.81,56.511Z" fill="#e0e0e0"/>
          <path id="Path_845" data-name="Path 845" d="M150.306,50.632a.912.912,0,0,1-.342-.551c-.1-.383,0-.738.191-.788l.816-.214c.205-.055.456.21.551.592s0,.734-.191.788l-.82.214a.26.26,0,0,1-.205-.041Z" fill="#e0e0e0"/>
          <path id="Path_846" data-name="Path 846" d="M148.242,45.706a.729.729,0,0,1-.2-.219,1.121,1.121,0,0,1-.109-.975l.515-.957c.123-.237.378-.182.57.123a1.112,1.112,0,0,1,.109.98l-.51.952a.242.242,0,0,1-.374.1Z" fill="#e0e0e0"/>
          <path id="Path_847" data-name="Path 847" d="M112.157,182.245c-.169.67-.524,2.566-4.051,2.566s-5.546-1.445-6.239-3.236-.3-3.117-.232-4.68-1.094-2.557-1.367-3.4c-.378-1.244.661-2.953.661-2.953Z" fill="#263238"/>
          <path id="Path_848" data-name="Path 848" d="M145.2,172.519a2.142,2.142,0,0,1-.164,1.7,7.317,7.317,0,0,1-5.537,1.7,13.49,13.49,0,0,1-6.007-2.1,7.83,7.83,0,0,0-4.617-1.144c-1.736,0-2.921-.324-3.067-.757-.251-.766-.269-1.258.1-1.244Z" fill="#263238"/>
          <path id="Path_849" data-name="Path 849" d="M102.117,167.975c0,3.213,6.148,3.8,6,1.212l2.147-7.511-6.955-.738Z" fill="#ffa8a7"/>
          <path id="Path_850" data-name="Path 850" d="M112.111,180.64a19.844,19.844,0,0,0-1.331-2.119,17.268,17.268,0,0,1-2.315-9.671c0-.187.036-.551-.132-.688s-.378,0-.588.055h0a3.8,3.8,0,0,1-1.112.132,20.2,20.2,0,0,1-2.871-.515c-.242,0-.415.729-.506,1.527-.4-.333-.456-.911-.816-1.272-.187-.2-.278-.219-.232-.506.027-.182.059-.346.087-.533-.3-.132-.729,1.035-1.117,1.923a5.326,5.326,0,0,0-.711,3.313,9.407,9.407,0,0,0,.743,1.823,6.954,6.954,0,0,1,.839,3.236c-.023.492-.128.98-.123,1.472a4.32,4.32,0,0,0,2.534,3.928c2.019.948,5.2,1.281,7.264.059C112.421,182.368,112.348,181.251,112.111,180.64Z" fill="#263238"/>
          <path id="Path_851" data-name="Path 851" d="M127.151,165.355a4.68,4.68,0,0,0,5.391.378l1.03-10.938h-7.538Z" fill="#ffa8a7"/>
          <path id="Path_852" data-name="Path 852" d="M110.662,95.126c-1.367,12.761-3.236,38.063-3.236,38.063a31.271,31.271,0,0,0-2.9,9.985c-1.007,7.6-2.188,22.044-2.188,22.044s3.55,2.306,7,1.189c0,0,7.9-22.787,9.479-30.279,1.367-6.526,3.815-19.929,3.815-19.929l3.044,18.229a28.625,28.625,0,0,0-.984,8.887c.15,3.514,1.531,16.94,1.531,16.94,1.144,1.085,5.542,1.226,7.009.292,0,0,2.11-22.354,2.415-26.045.406-4.854,1.158-39.649,1.158-39.649Z" fill="#263238"/>
          <path id="Path_853" data-name="Path 853" d="M122.639,116.213l1.7-7.839a18.575,18.575,0,0,0,6.517-3.049s-.994,2.5-5.159,4.421l-1.736,7.333,1.495,16.11Z"/>
          <path id="Path_854" data-name="Path 854" d="M143.707,170.327a35.747,35.747,0,0,1-7.456-3.582,14.968,14.968,0,0,1-1.2-.911c-.734-.734-1.18-2.338-1.495-2.52-.1-.059-.251,0-.456.141a.52.52,0,0,0-.337-.2l-.041.456a4.758,4.758,0,0,1-1.969.72c-1.768.223-1.823-.128-1.9.456a3.948,3.948,0,0,0,0,.638c-.943-.118-1.691-.392-1.745-.747l-.146-1.167c-.934-.046-.934,1.622-1.171,3.509-.191,1.522-.515,2.634-.055,3.737,1.454,1.176,3.928.784,5.355.966,2.019.255,3.008,1.7,5.829,2.566,4.557,1.367,7.319-.515,8.13-1.326C145.576,172.05,145.28,170.9,143.707,170.327Z" fill="#263238"/>
          <path id="Path_855" data-name="Path 855" d="M121.49,59.054c-3.559.542-7.634.825-10.131,1.167-2.734.369-3.7,2.6-3.7,7.292,0,6.868,3.514,18.321,3.514,18.321l-.957,11.712c3.19,3.413,18.5,4.908,26.665-.1,0,0,.219-23.293,0-27.221-.387-6.909-4.384-11.33-6.932-11.526C129.949,58.676,127.606,58.125,121.49,59.054Z" fill="#37474f"/>
          <path id="Path_856" data-name="Path 856" d="M126.239,66.888c-.059,1.609-.761,13.112-1.021,14.948s2.57,5.733,3.19,5.688,1.919-3.222,2.2-5.264c-.16-2.525-1.636-12.856-2.8-15.563Z" fill="#ba68c8"/>
          <path id="Path_857" data-name="Path 857" d="M127.93,66.916c-.027-.077-.059-.15-.087-.219l-1.586.191a5.478,5.478,0,0,1-.027.6h0a3.031,3.031,0,0,0,1.7-.574Z" opacity="0.15"/>
          <path id="Path_858" data-name="Path 858" d="M125.446,63.425a6.244,6.244,0,0,0,2.384-.214,9.02,9.02,0,0,1,.615,1.745,4.785,4.785,0,0,1-.6,1.741,1.914,1.914,0,0,1-1.586.191,6.125,6.125,0,0,1-1.367-1.3,10.938,10.938,0,0,1,.556-2.165Z" fill="#ba68c8"/>
          <path id="Path_859" data-name="Path 859" d="M118.036,37.708a3.772,3.772,0,0,0-2.666,1.741c-.624,1.281-.4,4.371.428,7.748a30.936,30.936,0,0,0,2.1,6.33,2.579,2.579,0,0,0,1.49,1.194l-.1-4-.146-2.785a11.526,11.526,0,0,0,1.987-4.443,7.288,7.288,0,0,0-.292-3.646Z" fill="#263238"/>
          <path id="Path_860" data-name="Path 860" d="M117.58,38.2l-2.734-1.258a1.613,1.613,0,0,1,2.083-.857,1.559,1.559,0,0,1,.652,2.115Z" fill="#263238"/>
          <path id="Path_861" data-name="Path 861" d="M121.2,41.572a7.465,7.465,0,1,0,7.438-7.488A7.465,7.465,0,0,0,121.2,41.572Z" fill="#263238"/>
          <path id="Path_862" data-name="Path 862" d="M119.262,47.483c-.67.583-1.217-.911-1.782-1.508a1.987,1.987,0,0,0-3.318.547c-.911,1.914.843,4.653,2.219,5.291a2.156,2.156,0,0,0,2.921-1.1l.214,8.4c2.124,3.828,6.476,2.557,7.141,4.307.4-1.554,2.443-2.279.98-3.979V56.712a15.825,15.825,0,0,0,3.363.164c1.823-.292,2.794-1.673,3.345-3.646a33.8,33.8,0,0,0,0-14.757c-2.051-1.591-9.174-1.326-13.485,1.4C121.167,45.359,119.936,46.9,119.262,47.483Z" fill="#ffa8a7"/>
          <path id="Path_863" data-name="Path 863" d="M136.53,43.436l-.406-.036a11.885,11.885,0,0,0-4.052.287c-1.29.456-1.745.911-2.461.948s-1.249-.406-2.63-.752a13.27,13.27,0,0,0-4.325.032l-.433.068a.725.725,0,0,0-.483.747,1.613,1.613,0,0,0,.419.839,1.094,1.094,0,0,1,.141.337,14.586,14.586,0,0,0,.533,2.329,2.889,2.889,0,0,0,.551.825,2.783,2.783,0,0,0,.283.237l.164.1a2.392,2.392,0,0,0,.488.219l.082.023.128.036.137.027a2.989,2.989,0,0,0,.428.05h.415a3.066,3.066,0,0,0,2.958-1.859c.442-.907.324-2.165,1.144-2.192h.15c.606.118.533,1.276.911,2.092a3.19,3.19,0,0,0,.583.889,1.259,1.259,0,0,0,.137.132l.073.064.077.064.073.05.077.05.059.036.041.027a2.443,2.443,0,0,0,.706.26h.068a3.691,3.691,0,0,0,.866.055,2.6,2.6,0,0,0,2.507-1.727,16.1,16.1,0,0,0,.506-2.37.725.725,0,0,1,.15-.314,1.723,1.723,0,0,0,.374-.88A.664.664,0,0,0,136.53,43.436Zm-8.522,3.646a2.794,2.794,0,0,1-.615,1.262h0a2.534,2.534,0,0,1-1.932.784,2.078,2.078,0,0,1-1.864-.834l-.059-.087-.055-.087a.736.736,0,0,1-.046-.082l-.041-.073-.027-.059a.277.277,0,0,1-.023-.055l-.041-.087h0c-.036-.087-.064-.173-.091-.255h0l-.046-.155c-.023-.087-.041-.173-.059-.246a.237.237,0,0,1,0-.05v-.046c-.137-.615-.3-1.823,0-2.119a3.39,3.39,0,0,1,2.434-.524h.141a4.507,4.507,0,0,1,.606.082l.232.05a4.3,4.3,0,0,1,.592.173l.178.068.2.087h.041l.068.041a1.13,1.13,0,0,1,.4.31,3.17,3.17,0,0,1,.014,1.9Zm7.716-.561a2.815,2.815,0,0,1-1.249,2.042,2.279,2.279,0,0,1-.984.255,2.064,2.064,0,0,1-1.978-.857h0a.38.38,0,0,1-.036-.055l-.041-.064v-.036l-.055-.1a.858.858,0,0,1-.05-.114l-.027-.055a.285.285,0,0,1,0-.032.137.137,0,0,1,0-.046v-.036a3.367,3.367,0,0,1-.128-.456,3.075,3.075,0,0,1,.036-1.882,3.717,3.717,0,0,1,2.165-1c.219-.036.419-.059.611-.073h.624a2.821,2.821,0,0,1,.3.041h.2l.087.027.16.123h.027a1.2,1.2,0,0,1,.324.2c.305.255.146,1.495.018,2.119Z" fill="#263238"/>
          <path id="Path_864" data-name="Path 864" d="M135.354,34.066a.342.342,0,0,0-.269-.21.456.456,0,0,0-.251.109,11.762,11.762,0,0,1-1.622,1.126,5.925,5.925,0,0,0,.027-2.229c-.082-.456-.21-1.5-.766-1.613-.337-.064-.624.214-.875.456-2.242,2.1-5.168,1.126-7.871,1.212-2.279.073-4.986.989-6.007,3.19-.456,1-.547,2.06.378,2.734a6.335,6.335,0,0,0,2.734,1.025c4.5.784,10.938,2.634,14.278-1.559a3.336,3.336,0,0,0,.7-2.21,4.557,4.557,0,0,0-.456-2.01Z" fill="#263238"/>
          <path id="Path_865" data-name="Path 865" d="M127.606,56.707a31.19,31.19,0,0,1-5.528-1.568,4.7,4.7,0,0,1-1.987-1.951,6.5,6.5,0,0,0,1.13,2.306c1.053,1.335,6.38,2.306,6.38,2.306Z" fill="#f28f8f"/>
          <path id="Path_866" data-name="Path 866" d="M126.658,46.244a.82.82,0,1,1-.82-.852.834.834,0,0,1,.82.852Z" fill="#263238"/>
          <path id="Path_867" data-name="Path 867" d="M126.344,43.181l-1.823.82a1.053,1.053,0,0,1,.52-1.367.98.98,0,0,1,1.3.547Z" fill="#263238"/>
          <path id="Path_868" data-name="Path 868" d="M126.964,51.717l2.616.975a1.367,1.367,0,0,1-1.773.87,1.458,1.458,0,0,1-.843-1.846Z" fill="#b16668"/>
          <path id="Path_869" data-name="Path 869" d="M127.807,53.563a1.322,1.322,0,0,0,.725.055,1.272,1.272,0,0,0-1.267-1.217,1.162,1.162,0,0,0-.355.059A1.417,1.417,0,0,0,127.807,53.563Z" fill="#f28f8f"/>
          <path id="Path_870" data-name="Path 870" d="M134.146,43.705l-1.9-.7a.966.966,0,0,1,1.281-.624,1.062,1.062,0,0,1,.615,1.322Z" fill="#263238"/>
          <path id="Path_871" data-name="Path 871" d="M133.435,45.97a.82.82,0,1,1-.816-.852A.834.834,0,0,1,133.435,45.97Z" fill="#263238"/>
          <path id="Path_872" data-name="Path 872" d="M129.374,45.77l.269,4.68,2.575-.911-2.566-3.846A.62.62,0,0,0,129.374,45.77Z" fill="#f28f8f"/>
          <path id="Path_873" data-name="Path 873" d="M122.32,44l-6,1.367a2.616,2.616,0,0,1,1.367.911l4.626-.875Z" fill="#263238"/>
          <path id="Path_874" data-name="Path 874" d="M119.458,56.762c-.52.041-.752.118-1.176.966-.483.962-.911,1.823-.911,1.823a5.806,5.806,0,0,0,1.759,3.737c1.741,1.764,5.6,2.962,5.6,2.962s.319-1.786.565-2.52c.542-1.6,1.367-.328,1.367-.328a1.873,1.873,0,0,0-.456-.952c-.346-.305-2.557-.5-4.316-1.6a6.421,6.421,0,0,1-2.42-3.067Z" fill="#455a64"/>
          <path id="Path_875" data-name="Path 875" d="M126.658,63.425a1.823,1.823,0,0,1,.456-1.417,3.445,3.445,0,0,0,.5-2.147c0-.743,0-2.411,0-2.411a1.464,1.464,0,0,1,1.417,1.112,9.16,9.16,0,0,1,.747,4.69,3.98,3.98,0,0,1-1.107,2.475s-.456-1.572-.747-2.279S127.091,62.513,126.658,63.425Z" fill="#455a64"/>
          <path id="Path_876" data-name="Path 876" d="M111.728,60.157a7.871,7.871,0,0,0-7.114,5.555c-1.035,3.008-3.582,10.7-5.127,15.454-2.7-1.3-9.251-4.471-10.555-5.624A24.154,24.154,0,0,1,85.6,71.965,16.091,16.091,0,0,1,84,69.559a15.536,15.536,0,0,1-1.285-3.29c-.346-1.007-1.641.055-1.622,1.855A9.17,9.17,0,0,0,81.668,71c-.652-.064-2.543-.255-2.835-.278-1.016-.082-4.143-.027-3.833,1.627.073.369.324.711.287,1.089a2.37,2.37,0,0,1-.15.515,1.9,1.9,0,0,0,.456,1.882,1.518,1.518,0,0,1,.456.77,2.361,2.361,0,0,0,.3.911,3.751,3.751,0,0,0,.588.515,3.017,3.017,0,0,1,.579.829,3.645,3.645,0,0,0,.556.852c.556.579,1.454.428,2.178.419.971,0,2.2-.242,3.245-.137,1.919.456,8.919,6.626,14.912,9.885,2.051,1.117,3.728,1.673,5.013.984h0c1.1-.433,1.636-1.636,2.338-3.354,1.591-4.029,5.706-14.77,5.706-14.77C113.023,68.3,112.9,62.34,111.728,60.157Z" fill="#ffa8a7"/>
          <path id="Path_877" data-name="Path 877" d="M80.606,71.573c.966,0,1.4.483,1.8,1.75.232.752.911,2.06,1.91,2.338a2.005,2.005,0,0,1-1.208-.1c-.515-.264-.633-.273-.77.023a1.518,1.518,0,0,1-.456.51,1.016,1.016,0,0,1,.479,1.121c-.178.779-1.919,1.367-3.6,1.112,0,0,2.566-.05,2.857-.971s-1.249-1.436-2.251-1.367c0,0,2.425-.214,2.52-1.066s-1.016-1.1-2.452-.993c0,0,1.969-.287,2.078-1.021C81.645,72.006,80.934,71.742,80.606,71.573Z" fill="#f28f8f"/>
          <path id="Path_878" data-name="Path 878" d="M112.622,60.066a8.363,8.363,0,0,0-5.314,1.413c-1.563,1.135-2.279,1.791-4.334,8.053s-3.737,11.307-3.737,11.307l-7.492-3.491a15.039,15.039,0,0,1-3.063,6.02s4.94,3.9,7.479,5.5,5.414,3.04,6.754,2.593,1.823-.761,3.619-5.318,5.5-13.977,5.5-13.977S114.185,65.553,112.622,60.066Z" fill="#455a64"/>
          <path id="Path_879" data-name="Path 879" d="M93.8,78.3l-3.815-2.019a14.849,14.849,0,0,1-3.222,5.688l4.006,3.012A9.222,9.222,0,0,0,93.8,78.3Z" fill="#37474f"/>
          <path id="Path_880" data-name="Path 880" d="M99.237,80.839a10.362,10.362,0,0,1,3.979,3.678,7.721,7.721,0,0,0-3.559-4.931Z" fill="#37474f"/>
        </g>
      </g>
    </g>
  </g>
</svg>
